<svg xmlns="http://www.w3.org/2000/svg" width="126" height="46" fill="none"
  xmlns:v="https://vecta.io/nano">
  <rect x=".5" y=".5" width="125" height="45" rx="7.5" stroke="#bde8fa" />
  <path
    d="M26.689 9.875c.162 1.485-.431 2.975-1.303 4.044s-2.311 1.902-3.716 1.791c-.189-1.455.517-2.969 1.329-3.918.906-1.072 2.429-1.866 3.691-1.918zm4.537 8.646c-.271.17-2.716 1.709-2.685 4.809.034 3.699 3.099 5.012 3.347 5.118.014.013.009.027.002.049a14.18 14.18 0 0 1-1.724 3.56c-1.044 1.541-2.124 3.077-3.832 3.11-.82.016-1.367-.224-1.936-.474-.597-.262-1.218-.533-2.199-.533-1.029 0-1.678.28-2.303.55-.541.233-1.065.459-1.802.489-1.646.06-2.903-1.666-3.956-3.204-2.153-3.146-3.796-8.886-1.587-12.761 1.097-1.923 3.056-3.142 5.183-3.175.917-.016 1.805.34 2.583.652.594.239 1.124.451 1.551.451.385 0 .901-.206 1.502-.445.946-.377 2.103-.838 3.294-.715.819.033 3.11.332 4.583 2.507-.004.002-.011.007-.021.013h.001zm16.922-8.296L45.324 18H44.17l3.252-8.531h.744l-.018.756zM50.516 18l-2.83-7.775-.017-.756h.744L51.676 18h-1.16zm-.146-3.158v.926h-4.793v-.926h4.793zm3.92 2.18l1.734-5.361h1.107L54.852 18h-.727l.164-.979zm-1.447-5.361l1.787 5.391.123.949h-.727l-2.297-6.34h1.113zm8.977 5.256v-3.264c0-.25-.051-.467-.152-.65a1.04 1.04 0 0 0-.445-.434c-.199-.102-.445-.152-.738-.152a1.73 1.73 0 0 0-.721.141c-.207.094-.363.217-.48.369a.81.81 0 0 0-.17.492H58.03c0-.227.059-.451.176-.674s.285-.424.504-.604a2.52 2.52 0 0 1 .797-.434c.313-.109.66-.164 1.043-.164.461 0 .867.078 1.219.234s.633.393.832.709.305.705.305 1.178v2.953a4.62 4.62 0 0 0 .053.674 2.63 2.63 0 0 0 .17.615V18h-1.131a2.03 2.03 0 0 1-.129-.498 4.05 4.05 0 0 1-.047-.586zm.188-2.76l.012.762h-1.096c-.309 0-.584.025-.826.076s-.445.119-.609.217a1.03 1.03 0 0 0-.375.369.98.98 0 0 0-.129.51c0 .199.045.381.135.545a.98.98 0 0 0 .404.393c.184.094.408.141.674.141a1.78 1.78 0 0 0 .879-.211 1.83 1.83 0 0 0 .604-.516c.152-.203.234-.4.246-.592l.463.521a1.55 1.55 0 0 1-.223.545c-.122.199-.283.391-.486.574s-.437.33-.715.451a2.28 2.28 0 0 1-.926.176c-.43 0-.807-.084-1.131-.252s-.57-.393-.75-.674-.264-.604-.264-.955c0-.34.066-.639.199-.896a1.73 1.73 0 0 1 .574-.65 2.73 2.73 0 0 1 .902-.399 4.75 4.75 0 0 1 1.178-.135h1.26zm3.779-2.496V18h-1.09v-6.34h1.09zm-1.172-1.682c0-.176.053-.324.158-.445s.269-.182.48-.182.365.061.475.182.17.27.17.445c0 .168-.057.312-.17.434s-.268.176-.475.176-.371-.059-.48-.176-.158-.266-.158-.434zM68.703 9v9h-1.09V9h1.09zm5.478 7.916v-3.264c0-.25-.051-.467-.152-.65a1.04 1.04 0 0 0-.445-.434c-.199-.102-.445-.152-.738-.152a1.73 1.73 0 0 0-.721.141 1.24 1.24 0 0 0-.481.369.81.81 0 0 0-.17.492H70.39c0-.227.059-.451.176-.674s.285-.424.504-.604a2.52 2.52 0 0 1 .797-.434c.313-.109.66-.164 1.043-.164.461 0 .867.078 1.219.234s.633.393.832.709.305.705.305 1.178v2.953a4.62 4.62 0 0 0 .053.674 2.63 2.63 0 0 0 .17.615V18h-1.131a2 2 0 0 1-.129-.498 4.01 4.01 0 0 1-.047-.586zm.188-2.76l.012.762h-1.096c-.309 0-.584.025-.826.076s-.445.119-.609.217a1.03 1.03 0 0 0-.375.369.98.98 0 0 0-.129.51c0 .199.045.381.135.545a.98.98 0 0 0 .404.393c.184.094.408.141.674.141a1.78 1.78 0 0 0 .879-.211 1.83 1.83 0 0 0 .603-.516c.152-.203.234-.4.246-.592l.463.521a1.57 1.57 0 0 1-.223.545c-.121.199-.283.391-.486.574s-.437.33-.715.451a2.33 2.33 0 0 1-.926.176c-.43 0-.807-.084-1.131-.252s-.57-.393-.75-.674-.264-.604-.264-.955c0-.34.066-.639.199-.896a1.73 1.73 0 0 1 .574-.65 2.73 2.73 0 0 1 .902-.399c.352-.09.744-.135 1.178-.135h1.26zM76.965 9h1.09v7.77L77.961 18h-.996V9zm5.373 5.777v.123a4.8 4.8 0 0 1-.164 1.283c-.109.394-.269.731-.48 1.02a2.24 2.24 0 0 1-.773.674c-.305.16-.654.24-1.049.24-.402 0-.756-.068-1.061-.205s-.555-.342-.762-.604a3.12 3.12 0 0 1-.498-.949c-.121-.371-.205-.789-.252-1.254v-.539a5.99 5.99 0 0 1 .252-1.26 3.12 3.12 0 0 1 .498-.949c.207-.266.461-.467.762-.604s.65-.211 1.049-.211a2.32 2.32 0 0 1 1.061.234c.309.156.566.371.773.656s.371.627.48 1.025a4.93 4.93 0 0 1 .164 1.318zm-1.09.123v-.123c0-.316-.029-.613-.088-.891s-.152-.527-.281-.738a1.4 1.4 0 0 0-.51-.504c-.211-.125-.471-.187-.779-.187a1.69 1.69 0 0 0-.715.141 1.56 1.56 0 0 0-.51.381 2.08 2.08 0 0 0-.346.539 2.92 2.92 0 0 0-.193.621v1.412a3.01 3.01 0 0 0 .305.791 1.84 1.84 0 0 0 .574.615c.242.16.541.24.897.24a1.5 1.5 0 0 0 .75-.176c.211-.121.381-.287.51-.498a2.32 2.32 0 0 0 .293-.732c.063-.277.094-.574.094-.891zM84.887 9v9h-1.09V9h1.09zm4.371 9.117c-.441 0-.842-.074-1.201-.223a2.64 2.64 0 0 1-.92-.639 2.84 2.84 0 0 1-.586-.973 3.56 3.56 0 0 1-.205-1.231v-.246c0-.516.076-.975.229-1.377s.359-.75.621-1.031a2.66 2.66 0 0 1 .891-.639 2.55 2.55 0 0 1 1.031-.217c.453 0 .844.078 1.172.234s.603.375.814.656.367.605.469.984a4.7 4.7 0 0 1 .152 1.23v.486H86.99v-.885h3.65v-.082a2.7 2.7 0 0 0-.176-.82c-.098-.266-.254-.484-.469-.656s-.508-.258-.879-.258c-.246 0-.473.053-.68.158s-.385.254-.533.457-.264.451-.346.744-.123.631-.123 1.014v.246a2.87 2.87 0 0 0 .123.85 2.07 2.07 0 0 0 .369.692 1.77 1.77 0 0 0 .592.469 1.81 1.81 0 0 0 .797.17c.383 0 .707-.078.973-.234s.498-.365.697-.627l.656.522a3.06 3.06 0 0 1-.522.592c-.211.188-.471.34-.779.457s-.666.176-1.084.176zM95.68 14.9v-.135c0-.457.066-.881.199-1.271a3.02 3.02 0 0 1 .574-1.025 2.56 2.56 0 0 1 .908-.68c.356-.164.754-.246 1.195-.246s.846.082 1.201.246a2.55 2.55 0 0 1 .914.68 2.97 2.97 0 0 1 .58 1.025c.133.391.199.815.199 1.271v.135c0 .457-.066.881-.199 1.272a3.04 3.04 0 0 1-.58 1.025 2.66 2.66 0 0 1-.908.68c-.352.16-.75.24-1.195.24s-.846-.08-1.201-.24a2.72 2.72 0 0 1-.914-.68c-.25-.293-.441-.635-.574-1.025s-.199-.815-.199-1.272zm1.084-.135v.135a3.52 3.52 0 0 0 .111.897 2.36 2.36 0 0 0 .334.738 1.69 1.69 0 0 0 .568.51c.227.121.49.182.791.182s.557-.061.779-.182.414-.295.563-.51.26-.461.334-.738a3.34 3.34 0 0 0 .117-.897v-.135c0-.312-.039-.607-.117-.885a2.38 2.38 0 0 0-.34-.744 1.7 1.7 0 0 0-.562-.516c-.226-.125-.484-.187-.785-.187s-.559.063-.785.188a1.65 1.65 0 0 0-.562.516 2.35 2.35 0 0 0-.334.744 3.41 3.41 0 0 0-.111.885zm7.131-1.752V18h-1.084v-6.34h1.025l.059 1.354zm-.258 1.576l-.451-.018c.003-.434.068-.834.193-1.201a3.06 3.06 0 0 1 .527-.967 2.35 2.35 0 0 1 .809-.633 2.39 2.39 0 0 1 1.049-.229c.312 0 .593.043.843.129a1.53 1.53 0 0 1 .639.398c.18.184.316.422.41.715s.141.643.141 1.061V18h-1.09v-4.166c0-.332-.049-.598-.146-.797s-.241-.35-.428-.439-.418-.141-.692-.141-.515.057-.738.17a1.76 1.76 0 0 0-.568.469 2.35 2.35 0 0 0-.369.685 2.44 2.44 0 0 0-.129.809zM48.908 27.558L46.071 36h-1.989l3.719-9.953h1.271l-.164 1.511zM51.28 36l-2.851-8.442-.171-1.511h1.278L53.276 36H51.28zm-.13-3.698v1.483h-5.339v-1.483h5.339zm4.642-2.276v8.818H53.98v-10.24h1.675l.137 1.422zm4.751 2.201v.144c0 .538-.064 1.037-.191 1.497s-.305.855-.547 1.196a2.56 2.56 0 0 1-.902.793c-.36.191-.766.28-1.23.28-.456 0-.852-.087-1.19-.26a2.45 2.45 0 0 1-.855-.752c-.232-.324-.419-.7-.56-1.128a8.4 8.4 0 0 1-.308-1.415v-.458c.068-.542.171-1.035.308-1.477s.328-.832.56-1.155.515-.581.848-.759.731-.267 1.183-.267c.469 0 .882.089 1.237.267a2.49 2.49 0 0 1 .909.766c.246.333.431.729.554 1.19a5.96 5.96 0 0 1 .185 1.538zm-1.812.144v-.144a4.38 4.38 0 0 0-.089-.909 2.47 2.47 0 0 0-.273-.738 1.36 1.36 0 0 0-.479-.499c-.196-.119-.433-.178-.711-.178s-.517.046-.718.137a1.26 1.26 0 0 0-.492.39 1.96 1.96 0 0 0-.301.602c-.068.228-.114.481-.137.759v1.135c.041.337.121.64.239.909a1.51 1.51 0 0 0 .519.643c.232.16.533.239.902.239a1.31 1.31 0 0 0 .711-.184 1.42 1.42 0 0 0 .479-.506c.123-.219.212-.469.267-.752a4.72 4.72 0 0 0 .082-.902zm4.936-2.345v8.818h-1.812v-10.24h1.675l.137 1.422zm4.751 2.201v.144c0 .538-.064 1.037-.191 1.497s-.305.855-.547 1.196a2.56 2.56 0 0 1-.902.793c-.36.191-.766.28-1.23.28-.456 0-.852-.087-1.189-.26a2.45 2.45 0 0 1-.855-.752c-.232-.324-.419-.7-.56-1.128a8.4 8.4 0 0 1-.308-1.415v-.458c.068-.542.171-1.035.308-1.477s.328-.832.56-1.155.515-.581.848-.759.731-.267 1.183-.267c.469 0 .882.089 1.237.267a2.49 2.49 0 0 1 .909.766c.246.333.431.729.554 1.19a5.96 5.96 0 0 1 .185 1.538zm-1.812.144v-.144a4.38 4.38 0 0 0-.089-.909 2.47 2.47 0 0 0-.273-.738 1.36 1.36 0 0 0-.478-.499c-.196-.119-.433-.178-.711-.178s-.517.046-.718.137a1.26 1.26 0 0 0-.492.39 1.96 1.96 0 0 0-.301.602c-.068.228-.114.481-.137.759v1.135c.041.337.121.64.239.909a1.51 1.51 0 0 0 .519.643c.232.16.533.239.902.239a1.31 1.31 0 0 0 .711-.184 1.42 1.42 0 0 0 .478-.506c.123-.219.212-.469.267-.752a4.72 4.72 0 0 0 .082-.902zm11.963 1.046a1.39 1.39 0 0 0-.089-.513.95.95 0 0 0-.308-.417 2.43 2.43 0 0 0-.622-.369 10.04 10.04 0 0 0-1.025-.383 11.35 11.35 0 0 1-1.299-.492 5.09 5.09 0 0 1-1.06-.636 2.71 2.71 0 0 1-.704-.834c-.169-.319-.253-.688-.253-1.108a2.42 2.42 0 0 1 .26-1.121c.173-.337.428-.627.752-.868s.704-.435 1.142-.567a5.08 5.08 0 0 1 1.463-.198c.738 0 1.376.134 1.914.403s.962.633 1.258 1.094a2.81 2.81 0 0 1 .444 1.552h-1.873c0-.31-.066-.583-.198-.82s-.324-.424-.588-.561-.588-.205-.984-.205c-.383 0-.702.057-.957.171s-.44.269-.567.465a1.21 1.21 0 0 0-.185.656c0 .182.043.346.13.492s.216.276.39.403.387.239.643.349l.902.314c.547.164 1.025.346 1.435.547s.759.428 1.032.684.485.542.622.861a2.73 2.73 0 0 1 .212 1.087c0 .428-.084.811-.253 1.149a2.43 2.43 0 0 1-.725.861 3.36 3.36 0 0 1-1.135.54c-.438.123-.927.185-1.47.185a5.5 5.5 0 0 1-1.435-.191 4.36 4.36 0 0 1-1.278-.588 3 3 0 0 1-.916-.998c-.228-.406-.342-.88-.342-1.422h1.887c0 .315.05.583.15.807a1.45 1.45 0 0 0 .438.54c.191.137.415.237.67.301s.531.096.827.096c.383 0 .697-.052.943-.157s.438-.26.56-.451a1.2 1.2 0 0 0 .191-.656zm6.699-4.812v1.299H81.03v-1.299h4.238zm-3.104-1.818h1.812v7.082c0 .219.03.387.089.506s.148.198.267.239a1.3 1.3 0 0 0 .424.062c.118 0 .228-.007.328-.02l.253-.041.007 1.354c-.15.05-.321.091-.513.123a3.84 3.84 0 0 1-.636.048c-.406 0-.761-.068-1.066-.205s-.542-.367-.711-.677-.253-.729-.253-1.244v-7.225zm3.808 5.592v-.144c0-.542.077-1.041.232-1.497s.38-.859.677-1.196a3.05 3.05 0 0 1 1.087-.786c.428-.191.916-.287 1.463-.287.556 0 1.048.096 1.477.287s.797.449 1.094.786.522.736.677 1.196.232.955.232 1.497v.144a4.66 4.66 0 0 1-.232 1.497c-.155.46-.381.854-.677 1.196s-.659.599-1.087.786-.918.28-1.47.28-1.037-.093-1.47-.28a3.03 3.03 0 0 1-1.094-.786c-.296-.342-.522-.741-.677-1.196s-.232-.959-.232-1.497zm1.805-.144v.144a4.12 4.12 0 0 0 .096.909c.064.283.162.531.294.745a1.47 1.47 0 0 0 .513.506c.214.118.469.178.766.178s.542-.059.752-.178a1.47 1.47 0 0 0 .513-.506c.137-.214.237-.462.301-.745a4.12 4.12 0 0 0 .096-.909v-.144a3.99 3.99 0 0 0-.096-.896c-.064-.278-.164-.531-.301-.745a1.51 1.51 0 0 0-.52-.513 1.49 1.49 0 0 0-.759-.191c-.297 0-.542.064-.752.191a1.49 1.49 0 0 0-.513.513c-.133.219-.23.462-.294.745s-.096.576-.096.896zm8.251-2.119V36h-1.805v-7.396h1.709l.096 1.511zm2.249-1.559l-.027 1.682c-.1-.018-.214-.032-.342-.041l-.349-.014c-.278 0-.522.039-.731.116a1.42 1.42 0 0 0-.526.321c-.141.141-.242.314-.314.52a2.28 2.28 0 0 0-.123.684l-.39-.048a5.62 5.62 0 0 1 .144-1.306c.096-.401.235-.752.417-1.053s.41-.533.684-.697a1.84 1.84 0 0 1 .957-.253c.1 0 .207.009.321.027s.212.034.28.062zm4.177 7.581c-.56 0-1.064-.091-1.511-.273a3.32 3.32 0 0 1-1.141-.759 3.49 3.49 0 0 1-.718-1.142c-.164-.437-.246-.907-.246-1.408v-.273a4.64 4.64 0 0 1 .246-1.552c.164-.465.397-.873.697-1.21a3.07 3.07 0 0 1 1.08-.779c.42-.182.882-.273 1.388-.273.524 0 .987.089 1.388.267s.736.419 1.005.738.471.702.608 1.148a4.95 4.95 0 0 1 .205 1.47v.759h-5.797v-1.244h4.02v-.137a2.18 2.18 0 0 0-.164-.786c-.101-.241-.256-.433-.465-.574s-.481-.219-.814-.219c-.269 0-.503.059-.704.178a1.41 1.41 0 0 0-.492.492c-.128.21-.223.46-.287.752a4.54 4.54 0 0 0-.096.971v.273a2.89 2.89 0 0 0 .123.861 2.07 2.07 0 0 0 .376.69 1.83 1.83 0 0 0 .602.451c.237.105.506.157.806.157a2.35 2.35 0 0 0 1.026-.219c.31-.15.579-.371.807-.663l.909.943c-.155.228-.365.447-.629.656a3.27 3.27 0 0 1-.944.513c-.37.132-.795.191-1.278.191z"
    fill="#bde8fa" />
</svg>