<svg xmlns="http://www.w3.org/2000/svg" width="126" height="46" fill="none"
  xmlns:v="https://vecta.io/nano">
  <rect x=".5" y=".5" width="125" height="45" rx="7.5" stroke="#bde8fa" />
  <path
    d="M26.419 18.029l-4.155 4.182L9.123 9.115c.561-.22 1.123-.11 1.685.22l15.611 8.694zM8 10.985c0-.55.112-.881.225-1.21l13.252 13.207-13.14 13.317c-.225-.33-.337-.66-.337-1.211V10.986v-.001zM32.821 21.44l-5.279-2.972-4.38 4.402 4.493 4.513 5.166-2.861c1.572-.771 1.572-2.201 0-3.082zM9.123 36.959l13.14-13.207 4.268 4.182-15.724 8.695c-.674.33-1.235.44-1.685.33h.001zm37.025-26.734L43.324 18H42.17l3.252-8.531h.744l-.018.756zM48.516 18l-2.83-7.775-.017-.756h.744L49.676 18h-1.16zm-.146-3.158v.926h-4.793v-.926h4.793zm3.92 2.18l1.734-5.361h1.107L52.852 18h-.727l.164-.979zm-1.447-5.361l1.787 5.391.123.949h-.727l-2.297-6.34h1.113zm8.977 5.256v-3.264c0-.25-.051-.467-.152-.65a1.04 1.04 0 0 0-.445-.434c-.199-.102-.445-.152-.738-.152a1.73 1.73 0 0 0-.721.141c-.207.094-.363.217-.48.369a.81.81 0 0 0-.17.492H56.03c0-.227.059-.451.176-.674s.285-.424.504-.604a2.52 2.52 0 0 1 .797-.434c.313-.109.66-.164 1.043-.164.461 0 .867.078 1.219.234s.633.393.832.709.305.705.305 1.178v2.953a4.62 4.62 0 0 0 .053.674 2.63 2.63 0 0 0 .17.615V18h-1.131a2.03 2.03 0 0 1-.129-.498 4.05 4.05 0 0 1-.047-.586zm.188-2.76l.012.762h-1.096c-.309 0-.584.025-.826.076s-.445.119-.609.217a1.03 1.03 0 0 0-.375.369.98.98 0 0 0-.129.51c0 .199.045.381.135.545a.98.98 0 0 0 .404.393c.184.094.408.141.674.141a1.78 1.78 0 0 0 .879-.211 1.83 1.83 0 0 0 .604-.516c.152-.203.234-.4.246-.592l.463.521a1.55 1.55 0 0 1-.223.545c-.122.199-.283.391-.486.574s-.437.33-.715.451a2.28 2.28 0 0 1-.926.176c-.43 0-.807-.084-1.131-.252s-.57-.393-.75-.674-.264-.604-.264-.955c0-.34.066-.639.199-.896a1.73 1.73 0 0 1 .574-.65 2.73 2.73 0 0 1 .902-.399 4.75 4.75 0 0 1 1.178-.135h1.26zm3.779-2.496V18h-1.09v-6.34h1.09zm-1.172-1.682c0-.176.053-.324.158-.445s.269-.182.48-.182.365.061.475.182.17.27.17.445c0 .168-.057.312-.17.434s-.268.176-.475.176-.371-.059-.48-.176-.158-.266-.158-.434zM66.703 9v9h-1.09V9h1.09zm5.478 7.916v-3.264c0-.25-.051-.467-.152-.65a1.04 1.04 0 0 0-.445-.434c-.199-.102-.445-.152-.738-.152a1.73 1.73 0 0 0-.721.141 1.24 1.24 0 0 0-.481.369.81.81 0 0 0-.17.492H68.39c0-.227.059-.451.176-.674s.285-.424.504-.604a2.52 2.52 0 0 1 .797-.434c.313-.109.66-.164 1.043-.164.461 0 .867.078 1.219.234s.633.393.832.709.305.705.305 1.178v2.953a4.62 4.62 0 0 0 .053.674 2.63 2.63 0 0 0 .17.615V18h-1.131a2 2 0 0 1-.129-.498 4.01 4.01 0 0 1-.047-.586zm.188-2.76l.012.762h-1.096c-.309 0-.584.025-.826.076s-.445.119-.609.217a1.03 1.03 0 0 0-.375.369.98.98 0 0 0-.129.51c0 .199.045.381.135.545a.98.98 0 0 0 .404.393c.184.094.408.141.674.141a1.78 1.78 0 0 0 .879-.211 1.83 1.83 0 0 0 .603-.516c.152-.203.234-.4.246-.592l.463.521a1.57 1.57 0 0 1-.223.545c-.121.199-.283.391-.486.574s-.437.33-.715.451a2.33 2.33 0 0 1-.926.176c-.43 0-.807-.084-1.131-.252s-.57-.393-.75-.674-.264-.604-.264-.955c0-.34.066-.639.199-.896a1.73 1.73 0 0 1 .574-.65 2.73 2.73 0 0 1 .902-.399c.352-.09.744-.135 1.178-.135h1.26zM74.965 9h1.09v7.77L75.961 18h-.996V9zm5.373 5.777v.123a4.8 4.8 0 0 1-.164 1.283c-.109.394-.269.731-.48 1.02a2.24 2.24 0 0 1-.773.674c-.305.16-.654.24-1.049.24-.402 0-.756-.068-1.061-.205s-.555-.342-.762-.604a3.12 3.12 0 0 1-.498-.949c-.121-.371-.205-.789-.252-1.254v-.539a5.99 5.99 0 0 1 .252-1.26 3.12 3.12 0 0 1 .498-.949c.207-.266.461-.467.762-.604s.65-.211 1.049-.211a2.32 2.32 0 0 1 1.061.234c.309.156.566.371.773.656s.371.627.48 1.025a4.93 4.93 0 0 1 .164 1.318zm-1.09.123v-.123c0-.316-.029-.613-.088-.891s-.152-.527-.281-.738a1.4 1.4 0 0 0-.51-.504c-.211-.125-.471-.187-.779-.187a1.69 1.69 0 0 0-.715.141 1.56 1.56 0 0 0-.51.381 2.08 2.08 0 0 0-.346.539 2.92 2.92 0 0 0-.193.621v1.412a3.01 3.01 0 0 0 .305.791 1.84 1.84 0 0 0 .574.615c.242.16.541.24.897.24a1.5 1.5 0 0 0 .75-.176c.211-.121.381-.287.51-.498a2.32 2.32 0 0 0 .293-.732c.063-.277.094-.574.094-.891zM82.887 9v9h-1.09V9h1.09zm4.371 9.117c-.441 0-.842-.074-1.201-.223a2.64 2.64 0 0 1-.92-.639 2.84 2.84 0 0 1-.586-.973 3.56 3.56 0 0 1-.205-1.231v-.246c0-.516.076-.975.229-1.377s.359-.75.621-1.031a2.66 2.66 0 0 1 .891-.639 2.55 2.55 0 0 1 1.031-.217c.453 0 .844.078 1.172.234s.603.375.814.656.367.605.469.984a4.7 4.7 0 0 1 .152 1.23v.486H84.99v-.885h3.65v-.082a2.7 2.7 0 0 0-.176-.82c-.098-.266-.254-.484-.469-.656s-.508-.258-.879-.258c-.246 0-.473.053-.68.158s-.385.254-.533.457-.264.451-.346.744-.123.631-.123 1.014v.246a2.87 2.87 0 0 0 .123.85 2.07 2.07 0 0 0 .369.692 1.77 1.77 0 0 0 .592.469 1.81 1.81 0 0 0 .797.17c.383 0 .707-.078.973-.234s.498-.365.697-.627l.656.522a3.06 3.06 0 0 1-.522.592c-.211.188-.471.34-.779.457s-.666.176-1.084.176zM93.68 14.9v-.135c0-.457.066-.881.199-1.271a3.02 3.02 0 0 1 .574-1.025 2.56 2.56 0 0 1 .908-.68c.356-.164.754-.246 1.195-.246s.846.082 1.201.246.664.387.914.68a2.97 2.97 0 0 1 .58 1.025c.133.391.199.815.199 1.271v.135c0 .457-.066.881-.199 1.272a3.04 3.04 0 0 1-.58 1.025 2.66 2.66 0 0 1-.908.68c-.352.16-.75.24-1.195.24s-.846-.08-1.201-.24a2.72 2.72 0 0 1-.914-.68c-.25-.293-.441-.635-.574-1.025s-.199-.815-.199-1.272zm1.084-.135v.135a3.52 3.52 0 0 0 .111.897 2.36 2.36 0 0 0 .334.738 1.69 1.69 0 0 0 .568.51c.227.121.49.182.791.182s.557-.061.779-.182.414-.295.563-.51a2.36 2.36 0 0 0 .334-.738 3.34 3.34 0 0 0 .117-.897v-.135c0-.312-.039-.607-.117-.885a2.28 2.28 0 0 0-.34-.744c-.148-.219-.336-.391-.562-.516s-.484-.187-.785-.187-.559.063-.785.188a1.65 1.65 0 0 0-.562.516 2.35 2.35 0 0 0-.334.744 3.41 3.41 0 0 0-.111.885zm7.131-1.752V18h-1.084v-6.34h1.025l.059 1.354zm-.258 1.576l-.451-.018c.003-.434.068-.834.193-1.201a3.06 3.06 0 0 1 .527-.967 2.35 2.35 0 0 1 .809-.633 2.39 2.39 0 0 1 1.049-.229c.312 0 .593.043.843.129a1.53 1.53 0 0 1 .639.398c.18.184.316.422.41.715s.141.643.141 1.061V18h-1.09v-4.166c0-.332-.049-.598-.146-.797s-.241-.35-.428-.439-.418-.141-.692-.141-.515.057-.738.17a1.76 1.76 0 0 0-.568.469 2.35 2.35 0 0 0-.369.685 2.44 2.44 0 0 0-.129.809zM50.716 30.853v3.876c-.146.187-.376.39-.69.608s-.715.408-1.217.567-1.116.232-1.846.232c-.633 0-1.212-.105-1.736-.314a3.68 3.68 0 0 1-1.354-.937c-.379-.411-.67-.911-.875-1.504s-.308-1.269-.308-2.03v-.656c0-.761.096-1.438.287-2.03s.474-1.094.834-1.504a3.61 3.61 0 0 1 1.306-.937c.51-.214 1.08-.321 1.709-.321.843 0 1.536.139 2.078.417s.966.661 1.258 1.149.474 1.039.547 1.668h-1.832c-.05-.346-.15-.649-.301-.909a1.55 1.55 0 0 0-.643-.615c-.273-.15-.629-.226-1.066-.226-.369 0-.695.073-.978.219a1.93 1.93 0 0 0-.711.636 3.11 3.11 0 0 0-.437 1.032 6.23 6.23 0 0 0-.143 1.408v.67c0 .533.055 1.007.164 1.422s.267.756.472 1.039a2 2 0 0 0 .772.636 2.51 2.51 0 0 0 1.053.212 3.67 3.67 0 0 0 .882-.089 2.06 2.06 0 0 0 .567-.226 1.61 1.61 0 0 0 .328-.253v-1.866H46.86v-1.374h3.855zm1.319 1.525v-.144c0-.542.077-1.041.232-1.497s.38-.859.677-1.196a3.05 3.05 0 0 1 1.087-.786c.428-.191.916-.287 1.463-.287.556 0 1.048.096 1.477.287s.797.449 1.094.786.522.736.677 1.196.232.955.232 1.497v.144a4.66 4.66 0 0 1-.232 1.497c-.155.46-.38.854-.677 1.196a3 3 0 0 1-1.087.786c-.428.187-.918.28-1.47.28s-1.037-.093-1.47-.28a3.03 3.03 0 0 1-1.094-.786c-.296-.342-.522-.741-.677-1.196s-.232-.959-.232-1.497zm1.805-.144v.144a4.12 4.12 0 0 0 .096.909c.064.283.162.531.294.745a1.47 1.47 0 0 0 .513.506c.214.118.469.178.766.178s.542-.059.752-.178a1.47 1.47 0 0 0 .513-.506c.137-.214.237-.462.301-.745a4.12 4.12 0 0 0 .096-.909v-.144a3.99 3.99 0 0 0-.096-.896c-.064-.278-.164-.531-.301-.745a1.51 1.51 0 0 0-.52-.513 1.49 1.49 0 0 0-.759-.191c-.297 0-.542.064-.752.191a1.49 1.49 0 0 0-.513.513c-.133.219-.23.462-.294.745s-.096.576-.096.896zm6.125.144v-.144c0-.542.078-1.041.233-1.497s.381-.859.677-1.196.659-.599 1.087-.786.916-.287 1.463-.287c.556 0 1.048.096 1.477.287s.797.449 1.094.786.522.736.677 1.196.232.955.232 1.497v.144c0 .538-.078 1.037-.232 1.497a3.48 3.48 0 0 1-.677 1.196 3 3 0 0 1-1.087.786c-.428.187-.918.28-1.47.28s-1.037-.093-1.47-.28a3.03 3.03 0 0 1-1.094-.786c-.296-.342-.522-.741-.677-1.196s-.233-.959-.233-1.497zm1.805-.144v.144a4.12 4.12 0 0 0 .096.909c.064.283.162.531.294.745a1.47 1.47 0 0 0 .513.506c.214.118.469.178.766.178s.542-.059.752-.178a1.47 1.47 0 0 0 .513-.506 2.32 2.32 0 0 0 .301-.745 4.12 4.12 0 0 0 .096-.909v-.144a3.99 3.99 0 0 0-.096-.896c-.064-.278-.164-.531-.301-.745a1.51 1.51 0 0 0-.52-.513 1.49 1.49 0 0 0-.759-.191c-.297 0-.542.064-.752.191a1.45 1.45 0 0 0-.513.513c-.132.214-.23.462-.294.745s-.096.576-.096.896zm11.149-3.63h1.641v7.171c0 .67-.146 1.237-.437 1.702a2.78 2.78 0 0 1-1.21 1.066c-.519.241-1.123.369-1.811.369-.296 0-.618-.041-.964-.123a3.83 3.83 0 0 1-.991-.39 2.47 2.47 0 0 1-.786-.677l.814-1.067c.246.287.524.504.834.65a2.27 2.27 0 0 0 1.005.225c.365 0 .674-.068.93-.205a1.35 1.35 0 0 0 .595-.588c.141-.255.212-.57.212-.943v-5.503l.171-1.689zm-4.997 3.787v-.143a5.38 5.38 0 0 1 .205-1.538c.137-.46.333-.864.588-1.196a2.68 2.68 0 0 1 .937-.772c.365-.182.784-.273 1.244-.273.488 0 .898.089 1.231.267s.615.431.834.759.396.718.52 1.169.226.939.294 1.477v.39a7.68 7.68 0 0 1-.308 1.442 4.19 4.19 0 0 1-.547 1.148 2.39 2.39 0 0 1-.848.752c-.337.178-.734.267-1.189.267s-.866-.093-1.23-.28-.677-.449-.937-.786-.451-.734-.588-1.189a5.15 5.15 0 0 1-.205-1.49zm1.805-.143v.143a3.98 3.98 0 0 0 .096.895 2.43 2.43 0 0 0 .294.738c.132.21.298.374.499.492s.44.178.718.178c.374 0 .679-.077.916-.232a1.5 1.5 0 0 0 .547-.649 2.98 2.98 0 0 0 .246-.937v-1.073c-.023-.273-.073-.526-.15-.759s-.175-.433-.308-.602a1.36 1.36 0 0 0-.506-.396c-.205-.095-.449-.144-.731-.144a1.37 1.37 0 0 0-.718.185 1.47 1.47 0 0 0-.506.499c-.132.214-.232.463-.301.745s-.096.588-.096.916zm8.374-6.747V36H76.29V25.5h1.811zm5.045 10.637c-.561 0-1.064-.091-1.511-.273a3.31 3.31 0 0 1-1.142-.759 3.49 3.49 0 0 1-.718-1.142c-.164-.437-.246-.907-.246-1.408v-.273a4.64 4.64 0 0 1 .246-1.552c.164-.465.396-.873.697-1.21a3.07 3.07 0 0 1 1.08-.779c.419-.182.882-.273 1.388-.273.524 0 .987.089 1.388.267s.736.419 1.005.738a3.22 3.22 0 0 1 .608 1.148 4.96 4.96 0 0 1 .205 1.47v.759H80.35v-1.244h4.02v-.137a2.18 2.18 0 0 0-.164-.786c-.1-.241-.255-.433-.465-.574s-.481-.219-.813-.219c-.269 0-.504.059-.704.178a1.42 1.42 0 0 0-.492.492 2.44 2.44 0 0 0-.287.752 4.54 4.54 0 0 0-.096.971v.273a2.89 2.89 0 0 0 .123.861 1.98 1.98 0 0 0 .376.69 1.83 1.83 0 0 0 .602.451c.237.105.506.157.807.157a2.35 2.35 0 0 0 1.025-.219c.31-.15.579-.371.807-.663l.909.943c-.155.228-.365.447-.629.656s-.574.381-.943.513-.795.191-1.278.191zm11.662-3.767h-2.563v-1.477h2.563c.419 0 .759-.068 1.019-.205s.458-.333.581-.574a1.84 1.84 0 0 0 .185-.841 2 2 0 0 0-.185-.854 1.49 1.49 0 0 0-.581-.643c-.264-.164-.599-.246-1.019-.246H92.86V36h-1.88v-9.953h3.828c.775 0 1.436.139 1.982.417s.971.654 1.258 1.142.438 1.035.438 1.654c0 .643-.146 1.196-.437 1.661s-.706.823-1.258 1.073-1.208.376-1.982.376zm6.931-6.87V36h-1.811V25.5h1.811zm5.797 8.928v-3.411c0-.251-.043-.467-.13-.649a.94.94 0 0 0-.396-.424c-.178-.1-.404-.15-.677-.15-.242 0-.453.041-.636.123a.94.94 0 0 0-.41.349.9.9 0 0 0-.143.506h-1.812c0-.305.073-.595.219-.868s.353-.524.622-.738.599-.39.977-.513.812-.185 1.286-.185c.56 0 1.059.096 1.497.287a2.32 2.32 0 0 1 1.039.848c.251.379.382.854.382 1.429v3.226c0 .369.023.686.069.95s.123.485.219.677V36h-1.839c-.087-.187-.153-.424-.199-.711s-.068-.579-.068-.861zm.253-2.933l.014 1.073h-1.142a2.81 2.81 0 0 0-.745.089c-.214.055-.39.137-.526.246a1.03 1.03 0 0 0-.308.383 1.17 1.17 0 0 0-.103.499c0 .182.042.346.124.492a.93.93 0 0 0 .369.349c.164.082.355.123.574.123a1.74 1.74 0 0 0 .834-.191 1.65 1.65 0 0 0 .554-.479c.132-.187.202-.365.212-.533l.519.779c-.064.187-.159.385-.287.595a2.69 2.69 0 0 1-.492.588 2.51 2.51 0 0 1-.725.451c-.282.118-.611.178-.984.178-.479 0-.907-.096-1.285-.287s-.677-.453-.896-.786-.328-.711-.328-1.135c0-.392.073-.738.219-1.039a1.99 1.99 0 0 1 .649-.759c.287-.205.643-.367 1.067-.472a6.15 6.15 0 0 1 1.469-.164h1.217zm5.25 3.685l1.982-6.576h1.935l-2.967 8.518a5.8 5.8 0 0 1-.266.595c-.109.214-.246.417-.424.608a2.03 2.03 0 0 1-.67.479c-.264.123-.586.185-.964.185a2.48 2.48 0 0 1-.437-.034l-.404-.089v-1.354a1.59 1.59 0 0 0 .157.007l.165.007c.264 0 .483-.032.656-.096s.312-.157.417-.294.2-.305.273-.52l.547-1.436zm-.977-6.576l1.674 5.448.294 1.907-1.244.226-2.673-7.581h1.949z"
    fill="#bde8fa" />
</svg>