<svg xmlns="http://www.w3.org/2000/svg" width="48" height="48" fill="#bde8fa"
  xmlns:v="https://vecta.io/nano">
  <path
    d="M25.636 21.714c.66-.736 1.276-1.423 2.096-1.908 3.606-2.133 8.378-.257 9.565 3.758.336 1.136.474 2.296.476 3.474l.011 9.653c.002.398-.128.472-.49.468a228.81 228.81 0 0 0-4.971.001c-.36.004-.459-.092-.457-.455l.006-8.784c-.001-.741-.073-1.472-.264-2.195-.66-2.496-3.562-2.528-4.874-1.259-.873.844-1.103 1.878-1.1 3.027l.016 9.074c.005.507-.147.604-.618.596a176.42 176.42 0 0 0-4.875-.004c-.333.003-.435-.087-.434-.429l.003-16.941c-.005-.314.086-.412.404-.409l5.116-.001c.339-.003.401.13.394.424-.016.637-.005 1.274-.005 1.912zm-9.175 6.594l.009 8.344c.003.398-.1.514-.504.509a170.55 170.55 0 0 0-4.919.001c-.413.006-.499-.123-.498-.514l.001-16.784c-.001-.373.089-.492.477-.486h4.968c.396-.006.475.129.473.492l-.007 8.44zm-3.12-17.455c1.363-.133 2.622.535 3.193 1.691.553 1.119.38 2.518-.481 3.405-.963.992-2.178 1.188-3.47.897-1.172-.264-1.947-.999-2.265-2.182-.483-1.794.776-3.601 2.639-3.783l.384-.028z" />
</svg>