<svg xmlns="http://www.w3.org/2000/svg" width="310" height="70" fill="none"
  xmlns:v="https://vecta.io/nano">
  <path
    d="M117.541 23.033c-.748 0-1.497.373-1.978.96l-12.671 16.738c-.428.533-1.23 1.439-2.032 1.439s-1.604-.853-2.085-1.439L86.211 24.046c-.481-.64-1.23-1.013-2.032-1.013a2.6 2.6 0 0 0-2.566 2.559c0 .693.321 1.333.749 1.812L95.46 44.836c1.283 1.599 3.261 2.612 5.453 2.612 2.3 0 4.331-1.119 5.668-2.772l12.938-17.485.054-.053c.374-.426.535-.959.535-1.546.053-1.386-1.177-2.559-2.567-2.559zm9.196 5.118h38.175a2.6 2.6 0 0 0 2.566-2.559 2.6 2.6 0 0 0-2.566-2.559h-38.175a2.6 2.6 0 0 0-2.566 2.559 2.6 2.6 0 0 0 2.566 2.559zm80.786 3.998h-29.78c-1.069 0-2.031-.906-2.031-1.972 0-1.12.962-1.972 2.031-1.972h32.775a2.6 2.6 0 0 0 2.566-2.559 2.6 2.6 0 0 0-2.566-2.559H177.85c-4.01 0-7.164 3.145-7.164 7.143s3.154 7.143 7.164 7.143h29.887c1.07 0 1.979.906 1.979 2.026 0 1.066-.909 1.919-1.979 1.919h-76.722c-.963 0-1.658-.64-1.658-1.333V37.32h34.432a2.6 2.6 0 0 0 2.566-2.559 2.6 2.6 0 0 0-2.566-2.559h-36.143c-2.352 0-3.422.48-3.422 2.399v4.851c0 4.265 3.369 7.037 6.577 7.037h76.722c4.01 0 7.218-3.092 7.218-7.09 0-4.051-3.261-7.25-7.218-7.25zm53.466-6.557a2.6 2.6 0 0 0-2.567-2.559h-37.051a2.6 2.6 0 0 0-2.566 2.559c0 1.333 1.069 2.452 2.352 2.559h16.147v15.672a2.6 2.6 0 0 0 2.566 2.559 2.6 2.6 0 0 0 2.566-2.559V28.151h15.933c1.39.053 2.62-1.173 2.62-2.559zm21.974-1.013c-1.23-1.652-3.261-2.612-5.453-2.612-2.299 0-4.438 1.119-5.668 2.772l-13.045 17.538c-.374.426-.535.96-.535 1.546a2.6 2.6 0 0 0 2.566 2.559c.749 0 1.497-.373 1.979-.96l12.671-16.738c.428-.533 1.23-1.439 2.032-1.439s1.604.853 2.085 1.439l12.564 16.685c.481.64 1.23 1.013 2.032 1.013a2.6 2.6 0 0 0 2.566-2.559c0-.693-.321-1.333-.748-1.812L282.963 24.58zm26.091-4.158a7.48 7.48 0 0 0-2.887-2.879c-1.23-.693-2.513-1.013-3.849-1.013h-.214a8.3 8.3 0 0 0-3.636 1.013c-1.23.64-2.192 1.599-2.941 2.879-.695 1.226-1.069 2.559-1.069 3.891s.374 2.612 1.016 3.838a7.48 7.48 0 0 0 2.887 2.879 8.3 8.3 0 0 0 3.636 1.013h.214c1.336 0 2.619-.32 3.849-1.013a7.47 7.47 0 0 0 2.887-2.879c.695-1.227 1.016-2.505 1.016-3.838.161-1.333-.214-2.612-.909-3.891zm-1.069 7.143a6.48 6.48 0 0 1-2.406 2.399c-1.016.586-2.085.853-3.208.853h-.214a6.67 6.67 0 0 1-2.994-.853 6.48 6.48 0 0 1-2.406-2.399c-.588-1.013-.855-2.079-.855-3.198s.267-2.186.855-3.252a6.48 6.48 0 0 1 2.406-2.399 6.87 6.87 0 0 1 2.994-.853h.214c1.069 0 2.139.267 3.208.853a5.24 5.24 0 0 1 2.406 2.399c.588 1.066.855 2.132.855 3.252 0 1.066-.32 2.132-.855 3.198zm-4.277-2.239c-.161-.16-.428-.32-.695-.426.748-.053 1.336-.32 1.764-.746s.642-.959.642-1.599c0-.427-.107-.853-.375-1.226a2.04 2.04 0 0 0-1.069-.8c-.374-.107-1.016-.213-1.818-.213h-3.208v8.369h1.337v-3.625h.802c.481 0 .802.107 1.069.266.374.267.802.906 1.444 1.972l.748 1.333h1.658l-1.016-1.652-1.283-1.653zm-1.551-1.386h-1.871V21.38h1.871c.535 0 .856.053 1.069.16.268.107.428.267.589.426a1.02 1.02 0 0 1 .213.64c0 .373-.16.693-.427.959-.321.213-.749.373-1.444.373z"
    fill="#000" />
  <path d="M22.533 33.748l-2.513-1.013 6.523-22.336 3.154-1.173c-.053.16-7.164 24.521-7.164 24.521z"
    fill="#d4edfc" />
  <path
    d="M29.911 22.287l.695-15.726s.962-.107 2.566-.107c6.095 0 21.653 1.386 29.139 14.926h-.374c-.535 0-1.55 0-2.887.053-6.95-9.062-18.606-10.075-23.471-10.075-1.39 0-2.245.107-2.245.107l-.481 10.768-2.941.053zm16.147 9.062l-1.497-3.838 4.438-1.013 1.497 3.785-4.438 1.066zM26.383 62.214c-1.497-.426-3.101-.959-4.705-1.706l8.02-5.917c1.925.427 3.689.64 5.347.64h.802l-9.463 6.983zm-6.951-27.347l-3.155-2.079.428-1.439 3.315 1.386-.588 2.132zm2.352-21.696l1.23-4.478a36.73 36.73 0 0 1 4.652-1.866c-.053.053-.428 1.439-1.069 3.518-1.818.853-3.422 1.759-4.812 2.825z"
    fill="#5bc5f2" />
  <path
    d="M20.074 32.735l-3.315-1.386 1.871-6.344 3.208-11.834a25.86 25.86 0 0 1 4.812-2.772l-6.576 22.336z"
    fill="#29bdef" />
  <path d="M32.692 25.165l.107-2.932 26.198-.8.642.906-9.784 2.292-17.162.533z" fill="#d4edfc" />
  <path
    d="M32.799 22.233l.481-10.768s.855-.107 2.246-.107c4.865 0 16.521 1.013 23.471 10.075l-26.198.8z"
    fill="#29bdef" />
  <path
    d="M49.854 24.632l9.784-2.292a25.5 25.5 0 0 1 1.23 2.026h-.321c-1.23 0-5.667.107-10.693.267z"
    fill="#0062ad" />
  <path
    d="M26.65 44.889L11.305 34.654c-.16-.746-.267-1.493-.321-2.239l4.812 2.026.214-.8 3.315 1.386s0-.053.053-.107l10.158 6.77-2.887 3.198z"
    fill="#d4edfc" />
  <path d="M19.379 35.027l-3.315-1.386.267-.853 3.101 2.079c-.054.107-.054.16-.054.16z"
    fill="#29bdef" />
  <path
    d="M29.698 54.591c-1.657-.373-3.422-.959-5.24-1.759l18.499-13.38 4.545 7.143-.962.693-2.085-3.625-14.756 10.928z"
    fill="#d4edfc" />
  <path d="M35.044 55.231c-1.657 0-3.475-.16-5.347-.64l14.756-10.875 2.085 3.625-10.693 7.89h-.802z"
    fill="#29bdef" />
  <path d="M35.846 55.231l10.693-7.89.962-.693 2.085 3.252c0-.053-5.133 5.011-13.741 5.331z"
    fill="#0062ad" />
  <path
    d="M55.414 56.99l-6.63-11.354-.321.213-5.507-13.753 3.101-.693 9.303 23.242s1.444-1.599 3.047-4.531l.214.586a30.78 30.78 0 0 1-3.208 6.29z"
    fill="#d4edfc" />
  <path
    d="M55.361 54.644l-9.303-23.295 4.438-1.013 7.913 19.777c-1.604 2.879-3.047 4.531-3.047 4.531z"
    fill="#29bdef" />
  <path
    d="M58.622 50.7l-.214-.586-7.913-19.777 7.859-1.972c3.529 9.116 2.352 16.845.267 22.336zm-4.812 8.422l-5.293-13.273.321-.213 6.63 11.354-1.657 2.132z"
    fill="#0062ad" />
  <path
    d="M19.379 56.936S5.852 48.407 6.494 31.456l4.812 3.198c1.978 10.502 10.372 15.779 10.372 15.779l5.026-5.544 2.192 1.493-9.517 10.555z"
    fill="#5bc5f2" />
  <path d="M21.678 50.433s-8.394-5.277-10.372-15.779L26.65 44.836l-4.972 5.597z" fill="#29bdef" />
  <path
    d="M.024 33.215l27.962 18.551-11.869 13.167c0 .053-16.842-10.608-16.093-31.718zM29.751.111S55.2-2.448 66.001 17.009c-.481-.16-37.052 1.066-37.052 1.066L29.751.111zm-9.089 66.367l28.123-20.843 9.517 16.312c.053 0-14.81 14.553-37.64 4.531zm27.642-41.526l13.42 33.53s14.382-15.885 5.614-38.168c.855.16-19.034 4.638-19.034 4.638zM6.654 14.504C13.872 3.683 25.206.537 25.206.537l-6.63 24.521-1.871 6.344-.642 2.239-.214.8-4.812-2.026L.719 28.151c1.123-5.544 3.261-9.968 5.935-13.647z"
    fill="#324f9e" />
</svg>