<svg xmlns="http://www.w3.org/2000/svg" width="310" height="70" fill="none"
  xmlns:v="https://vecta.io/nano">
  <g fill="#fff">
    <path
      d="M117.187 23.993c.329-.418.78-.723 1.289-.871a2.53 2.53 0 0 1 1.552.044 2.55 2.55 0 0 1 1.238.944 2.57 2.57 0 0 1 .462 1.492 2.3 2.3 0 0 1-.536 1.559l-.053.053-12.908 17.501c-.661.866-1.51 1.567-2.483 2.052a7.07 7.07 0 0 1-3.127.742 6.91 6.91 0 0 1-2.992-.7 6.96 6.96 0 0 1-2.399-1.93l-12.964-17.45a2.82 2.82 0 0 1-.752-1.829 2.62 2.62 0 0 1 .758-1.812 2.59 2.59 0 0 1 1.799-.766 2.51 2.51 0 0 1 1.137.268 2.53 2.53 0 0 1 .895.755l12.432 16.695c.48.589 1.277 1.448 2.082 1.448s1.598-.912 2.033-1.448l12.537-16.748zm30.011-.97h18.913a2.55 2.55 0 0 1 .98.196 2.57 2.57 0 0 1 .831.559 2.58 2.58 0 0 1 .555.836c.129.313.195.648.195.986s-.066.674-.195.986a2.58 2.58 0 0 1-.555.836 2.57 2.57 0 0 1-.831.559 2.55 2.55 0 0 1-.98.196h-18.913v-5.155zm0 23.408h30.562 30.562a7.02 7.02 0 0 0 2.724-.513 7.04 7.04 0 0 0 2.318-1.529 7.11 7.11 0 0 0 1.554-2.31c.361-.866.549-1.795.551-2.734a7.22 7.22 0 0 0-2.093-5.087 7.13 7.13 0 0 0-5.054-2.109h-29.515a2.05 2.05 0 0 1-1.411-.583c-.378-.369-.601-.871-.622-1.401.015-.533.236-1.038.615-1.41a2.03 2.03 0 0 1 1.418-.579h32.491c.679 0 1.33-.272 1.811-.755a2.58 2.58 0 0 0 .75-1.822c0-.683-.27-1.339-.75-1.822s-1.132-.755-1.811-.755h-32.385a7.08 7.08 0 0 0-4.909 2.151 7.17 7.17 0 0 0-2.02 4.99c0 1.865.725 3.656 2.02 4.99a7.08 7.08 0 0 0 4.909 2.151h29.612a2.03 2.03 0 0 1 1.398.62c.368.381.574.893.574 1.425a1.98 1.98 0 0 1-.593 1.372 1.95 1.95 0 0 1-1.379.559h-61.327v5.155-.004zm0-9.127V32.15h17.738a2.55 2.55 0 0 1 1.811.755c.481.484.75 1.139.75 1.822s-.27 1.339-.75 1.822-1.132.755-1.811.755h-17.738zm-18.912-14.281h18.912v5.155h-18.912c-.679 0-1.331-.272-1.811-.755s-.75-1.139-.75-1.822.27-1.339.75-1.822 1.132-.755 1.811-.755zm18.912 9.127v5.154h-16.355v2.63c0 .7.695 1.342 1.655 1.342h14.7v5.155h-14.964c-3.151 0-6.505-2.794-6.505-7.032v-4.831c0-1.931 1.065-2.418 3.415-2.418h18.054zm114.088-6.55c-.008.68-.28 1.33-.758 1.812s-1.123.756-1.799.766h-15.794v15.676c0 .684-.27 1.339-.75 1.822s-1.132.755-1.811.755a2.55 2.55 0 0 1-1.811-.755c-.481-.483-.751-1.139-.751-1.822V28.178h-16.005a2.56 2.56 0 0 1-1.717-.862 2.59 2.59 0 0 1-.642-1.82c.027-.667.311-1.298.791-1.759a2.56 2.56 0 0 1 1.783-.714h36.711a2.58 2.58 0 0 1 1.799.766c.478.482.75 1.131.758 1.812h-.004zm1.87 19.866a2.63 2.63 0 0 1-.883.701 2.61 2.61 0 0 1-1.093.265 2.59 2.59 0 0 1-1.8-.765 2.62 2.62 0 0 1-.761-1.812 2.32 2.32 0 0 1 .52-1.563l12.969-17.558a7.04 7.04 0 0 1 2.474-2.056 6.98 6.98 0 0 1 3.124-.734 6.67 6.67 0 0 1 3.021.672 6.71 6.71 0 0 1 2.398 1.966l12.961 17.448a2.8 2.8 0 0 1 .748 1.825 2.62 2.62 0 0 1-.759 1.813 2.59 2.59 0 0 1-1.802.764 2.51 2.51 0 0 1-1.137-.266c-.353-.177-.66-.434-.896-.752l-12.432-16.695c-.48-.593-1.281-1.452-2.081-1.452s-1.598.912-2.033 1.452l-12.538 16.748z" />
    <path fill-rule="evenodd"
      d="M302.082 23.931a2.38 2.38 0 0 0 1.419-.352 1.15 1.15 0 0 0 .431-.925 1.11 1.11 0 0 0-.211-.671 1.22 1.22 0 0 0-.573-.438c-.346-.103-.705-.152-1.066-.143v-1.129c.607-.015 1.213.061 1.797.225a2.09 2.09 0 0 1 1.049.818 2.14 2.14 0 0 1 .407 1.227c.003.296-.053.59-.164.864s-.277.523-.487.731c-.461.465-1.079.738-1.732.765.263.101.504.251.712.442.465.509.874 1.067 1.22 1.665l1.016 1.636h-1.626l-.744-1.321c-.357-.725-.834-1.384-1.411-1.947v-1.448h-.037zm0 8.149h.208c1.345-.002 2.667-.355 3.838-1.023a7.23 7.23 0 0 0 2.845-2.864c.673-1.178 1.027-2.513 1.027-3.872s-.354-2.694-1.027-3.872a7.06 7.06 0 0 0-2.882-2.864 7.84 7.84 0 0 0-3.789-1.006h-.207v1.285h.207c1.107.006 2.194.296 3.159.843 1.015.544 1.85 1.374 2.402 2.389a6.52 6.52 0 0 1 0 6.456 6.06 6.06 0 0 1-2.378 2.385 6.43 6.43 0 0 1-3.199.863h-.208l.004 1.28zm-1.849-8.145h1.849v1.419c-.315-.2-.685-.294-1.057-.27h-.792v3.555h-1.334v-8.37h3.183v1.121h-1.849v2.545zm1.849-7.364a7.81 7.81 0 0 0-3.581 1.002c-1.218.652-2.222 1.647-2.887 2.864-.672 1.178-1.026 2.513-1.026 3.872s.354 2.694 1.026 3.872a7.24 7.24 0 0 0 2.846 2.864c1.11.632 2.356.982 3.631 1.019v-1.268c-1.05-.037-2.074-.332-2.984-.859a6.03 6.03 0 0 1-2.387-2.389c-.563-.981-.86-2.094-.86-3.228s.297-2.247.86-3.228a5.95 5.95 0 0 1 2.407-2.389 6.47 6.47 0 0 1 2.951-.818l.004-1.313z" />
  </g>
  <path
    d="M22.325 33.762l-2.476-1.035 6.476-22.353a28.49 28.49 0 0 1 3.147-1.199c-.114.221-7.147 24.587-7.147 24.587z"
    fill="#c7eafb" />
  <path
    d="M29.598 22.311l.679-15.721s.951-.098 2.537-.098c6.07 0 21.482 1.399 28.893 14.903-.126-.007-.252-.007-.378 0a75.96 75.96 0 0 0-2.878.049C51.54 12.391 39.99 11.38 35.177 11.38c-1.382 0-2.212.086-2.212.086l-.463 10.759-2.903.086zm16.018 9.066l-1.512-3.813 4.395-1.015 1.508 3.801-4.391 1.027zM26.118 62.243a35.37 35.37 0 0 1-4.651-1.694l7.944-5.932a23.8 23.8 0 0 0 5.318.609h.813l-9.424 7.016zm-6.895-27.364l-3.094-2.074.407-1.46 3.293 1.383-.626 2.152h.02zm2.346-21.727l1.195-4.451c1.487-.736 3.028-1.354 4.61-1.849-.029.053-.431 1.42-1.049 3.522a26.08 26.08 0 0 0-4.756 2.778z"
    fill="#44c8f5" />
  <path
    d="M19.849 32.727l-3.293-1.383 1.842-6.324 3.187-11.864c1.479-1.089 3.068-2.019 4.74-2.774l-6.476 22.345z"
    fill="#00c2f3" />
  <g fill="#fff">
    <path d="M24.972.507S13.723 3.677 6.58 14.522l11.79 10.489L24.972.507z" />
    <path
      d="M10.869 32.404L.644 28.12c.998-4.905 3.015-9.542 5.919-13.606l4.748 4.218a30.82 30.82 0 0 0-4.732 11l4.224 1.767a21.47 21.47 0 0 0 .065.904z" />
    <path
      d="M16.129 32.804l-5.346-3.58.02 2.275-4.224-1.767a30.82 30.82 0 0 1 4.732-11l.472.409 2.521 2.242a26.07 26.07 0 0 0-2.988 7.773l5.24 2.193-.427 1.456z" />
    <path d="M16.556 31.344l-5.24-2.193a26.07 26.07 0 0 1 2.988-7.773l4.065 3.621-1.813 6.345z" />
  </g>
  <path d="M32.375 25.159l.126-2.941 25.95-.781.663.916-9.704 2.27-17.034.536z" fill="#c7eafb" />
  <path
    d="M32.501 22.217l.463-10.759s.813-.086 2.212-.086c4.813 0 16.367 1.011 23.274 10.064l-25.949.781z"
    fill="#00c2f3" />
  <path
    d="M49.409 24.623l9.704-2.27a22.52 22.52 0 0 1 1.22 2.009c-.111-.008-.222-.008-.333 0-1.212-.008-5.635.11-10.59.262z"
    fill="#006ab5" />
  <path
    d="M26.407 44.873L11.182 34.67l-.313-2.266 4.797 2.005.224-.777 3.297 1.379.037-.131 10.078 6.754-2.895 3.24z"
    fill="#c7eafb" />
  <path d="M19.187 35.009l-3.297-1.379.24-.818 3.094 2.074-.037.123z" fill="#00c2f3" />
  <g fill="#fff">
    <path d="M15.666 34.408l-4.797-2.005-.065-.904 5.086 2.131-.224.777z" />
    <path d="M15.89 33.631l-5.086-2.131-.02-2.275 5.346 3.58-.24.826z" />
  </g>
  <path
    d="M29.411 54.617c-1.787-.413-3.53-.999-5.204-1.751l18.351-13.414 4.513 7.135-.959.72-2.09-3.608-14.611 10.919z"
    fill="#c7eafb" />
  <path
    d="M34.729 55.227c-1.787-.003-3.568-.208-5.309-.609l14.635-10.919 2.09 3.608-10.57 7.908-.846.012z"
    fill="#00c2f3" />
  <path d="M35.542 55.215l10.57-7.908.955-.72 2.073 3.273c-3.785 3.308-8.588 5.2-13.599 5.355z"
    fill="#006ab5" />
  <path
    d="M54.897 56.982l-6.562-11.336-.317.237-5.476-13.799 3.074-.708 9.228 23.257a25.14 25.14 0 0 0 3.008-4.5l.228.577c-.825 2.204-1.892 4.307-3.183 6.271z"
    fill="#c7eafb" />
  <path
    d="M54.844 54.634l-9.228-23.257 4.391-1.027 7.846 19.771c-.838 1.609-1.846 3.122-3.008 4.512z"
    fill="#00c2f3" />
  <g fill="#006ab5">
    <path
      d="M58.08 50.698l-.228-.577-7.846-19.771 7.785-1.988c3.529 9.102 2.334 16.875.289 22.336zm-4.797 8.456l-5.265-13.271.317-.237 6.562 11.336a20.24 20.24 0 0 1-1.614 2.172z" />
    <path d="M57.792 28.382v-.024c.014-.008.014 0 0 .024z" />
  </g>
  <path
    d="M19.191 56.929S5.775 48.403 6.401 31.463l4.781 3.207c1.96 10.485 10.257 15.766 10.257 15.766l4.968-5.564 2.22 1.485-9.436 10.571z"
    fill="#44c8f5" />
  <path d="M21.439 50.436s-8.298-5.281-10.257-15.766l15.225 10.203-4.968 5.564z" fill="#00c2f3" />
  <path
    d="M.026 33.214L27.74 51.786 15.971 64.967S-.75 54.331.026 33.214zM29.444.11S54.686-2.439 65.37 17.034c-.463-.147-36.699 1.051-36.699 1.051L29.444.11zm18.428 24.864L61.186 58.52s14.229-15.881 5.578-38.197c.772.16-18.892 4.651-18.892 4.651zM20.463 66.465l27.873-20.819 9.448 16.327s-14.713 14.531-37.32 4.492z"
    fill="#fff" />
</svg>