<svg xmlns="http://www.w3.org/2000/svg" width="403" height="91" fill="none"
  xmlns:v="https://vecta.io/nano">
  <g fill="#fff">
    <path
      d="M152.344 31.19c.427-.544 1.013-.94 1.675-1.133a3.29 3.29 0 0 1 2.018.057 3.31 3.31 0 0 1 1.609 1.227 3.34 3.34 0 0 1 .601 1.939c.026.739-.223 1.461-.698 2.026l-.068.069-16.78 22.751a9.26 9.26 0 0 1-3.228 2.667 9.2 9.2 0 0 1-4.066.965 8.99 8.99 0 0 1-3.889-.911 9.05 9.05 0 0 1-3.119-2.509l-16.854-22.682c-.601-.647-.949-1.492-.977-2.377.011-.884.364-1.729.985-2.355a3.36 3.36 0 0 1 2.339-.995 3.26 3.26 0 0 1 1.478.349 3.28 3.28 0 0 1 1.164.981l16.162 21.704c.624.766 1.66 1.883 2.706 1.883s2.077-1.186 2.643-1.883l16.299-21.773zm39.014-1.26h24.586a3.32 3.32 0 0 1 2.354.981 3.35 3.35 0 0 1 .722 1.087 3.37 3.37 0 0 1 0 2.564 3.35 3.35 0 0 1-.722 1.087 3.32 3.32 0 0 1-1.08.726 3.31 3.31 0 0 1-1.274.255h-24.586v-6.7zm0 30.431h79.46c1.213.015 2.417-.211 3.542-.667a9.17 9.17 0 0 0 3.014-1.988 9.24 9.24 0 0 0 2.02-3.003 9.26 9.26 0 0 0 .715-3.554 9.38 9.38 0 0 0-2.721-6.613 9.27 9.27 0 0 0-6.57-2.742h-38.369a2.66 2.66 0 0 1-1.834-.758c-.492-.48-.781-1.132-.809-1.822a2.67 2.67 0 0 1 .8-1.832c.493-.482 1.155-.753 1.843-.752h42.238a3.32 3.32 0 0 0 2.354-.981 3.36 3.36 0 0 0 0-4.738 3.32 3.32 0 0 0-2.354-.981h-42.101a9.2 9.2 0 0 0-6.381 2.796c-1.683 1.735-2.625 4.063-2.625 6.487s.942 4.752 2.625 6.487a9.2 9.2 0 0 0 6.381 2.796h38.497a2.63 2.63 0 0 1 1.817.806c.479.496.746 1.161.746 1.853-.014.673-.291 1.314-.77 1.784a2.54 2.54 0 0 1-1.793.726h-79.725v6.701-.005zm0-11.865v-6.701h23.058a3.32 3.32 0 0 1 2.355.981 3.36 3.36 0 0 1 0 4.738 3.32 3.32 0 0 1-2.355.981h-23.058zM166.772 29.93h24.586v6.701h-24.586a3.32 3.32 0 0 1-2.355-.981c-.624-.628-.975-1.481-.975-2.369s.351-1.741.975-2.369a3.32 3.32 0 0 1 2.355-.981zm24.586 11.865v6.701h-21.262v3.42c0 .909.904 1.744 2.151 1.744h19.111v6.701h-19.454c-4.096 0-8.456-3.632-8.456-9.142v-6.281c0-2.51 1.384-3.143 4.439-3.143h23.471zm148.314-8.515c-.011.884-.365 1.729-.986 2.355a3.36 3.36 0 0 1-2.338.995h-20.533v20.38a3.36 3.36 0 0 1-.975 2.369 3.32 3.32 0 0 1-4.709 0c-.624-.628-.975-1.481-.975-2.369V36.631h-20.807a3.33 3.33 0 0 1-2.232-1.121 3.37 3.37 0 0 1-.835-2.366c.036-.867.405-1.687 1.029-2.286s1.455-.932 2.318-.928h47.724a3.36 3.36 0 0 1 2.339.995c.621.626.974 1.471.985 2.355h-.005zm2.431 25.826c-.313.383-.704.694-1.148.911a3.39 3.39 0 0 1-1.421.344 3.36 3.36 0 0 1-2.34-.995 3.41 3.41 0 0 1-.989-2.355 3.01 3.01 0 0 1 .676-2.031l16.86-22.826a9.14 9.14 0 0 1 3.215-2.673 9.08 9.08 0 0 1 4.062-.954 8.66 8.66 0 0 1 3.927.874 8.73 8.73 0 0 1 3.118 2.556l16.849 22.682a3.63 3.63 0 0 1 .972 2.372c-.011.885-.365 1.731-.987 2.357a3.36 3.36 0 0 1-2.342.994 3.27 3.27 0 0 1-1.478-.346c-.459-.23-.858-.565-1.165-.978L363.75 37.333c-.623-.771-1.664-1.888-2.705-1.888s-2.078 1.186-2.643 1.888l-16.299 21.773z" />
    <path fill-rule="evenodd"
      d="M392.707 31.111c.647.045 1.292-.115 1.845-.457a1.49 1.49 0 0 0 .42-.535c.097-.209.145-.437.14-.667.004-.313-.092-.619-.275-.872-.186-.261-.445-.459-.745-.569a4.46 4.46 0 0 0-1.385-.186v-1.468a7.94 7.94 0 0 1 2.336.292c.558.196 1.036.569 1.364 1.064.336.464.52 1.021.528 1.596a2.88 2.88 0 0 1-.213 1.124 2.87 2.87 0 0 1-.632.951c-.6.605-1.404.96-2.252.995.341.132.655.327.925.574a12.4 12.4 0 0 1 1.586 2.165l1.321 2.127h-2.114l-.967-1.718c-.464-.943-1.084-1.799-1.834-2.532v-1.883h-.048zm0 10.594h.27a10.1 10.1 0 0 0 4.989-1.33 9.4 9.4 0 0 0 3.699-3.723 10.15 10.15 0 0 0 0-10.067c-.859-1.583-2.162-2.878-3.747-3.723-1.506-.847-3.2-1.297-4.925-1.308h-.27v1.67h.27c1.439.008 2.852.385 4.106 1.096a7.7 7.7 0 0 1 3.124 3.106c.727 1.277 1.11 2.724 1.11 4.196s-.383 2.919-1.11 4.196c-.719 1.306-1.791 2.382-3.092 3.101a8.36 8.36 0 0 1-4.16 1.122h-.269l.005 1.665zm-2.404-10.588h2.404v1.845c-.41-.259-.891-.382-1.374-.351h-1.03v4.621h-1.734V26.351h4.138v1.457h-2.404v3.308zm2.404-9.573a10.16 10.16 0 0 0-4.656 1.303 9.25 9.25 0 0 0-3.752 3.723 10.15 10.15 0 0 0 0 10.067 9.4 9.4 0 0 0 3.699 3.723c1.443.822 3.063 1.276 4.72 1.324v-1.649c-1.365-.048-2.696-.431-3.879-1.117a7.84 7.84 0 0 1-3.103-3.106 8.43 8.43 0 0 1 0-8.392c.722-1.319 1.809-2.398 3.129-3.106 1.177-.657 2.492-1.021 3.837-1.064l.005-1.707z" />
  </g>
  <path
    d="M29.023 43.89l-3.219-1.346 8.419-29.059a37.01 37.01 0 0 1 4.091-1.558c-.148.287-9.291 31.962-9.291 31.962z"
    fill="#c7eafb" />
  <path
    d="M38.478 29.005l.883-20.438s1.237-.128 3.298-.128c7.891 0 27.926 1.819 37.561 19.374a4.24 4.24 0 0 0-.492 0c-.666 0-1.977 0-3.742.064-8.985-11.769-23.999-13.083-30.257-13.083-1.797 0-2.875.112-2.875.112l-.602 13.987-3.773.112zM59.301 40.79l-1.966-4.957 5.713-1.319 1.961 4.941-5.708 1.335zM33.954 80.916a46.09 46.09 0 0 1-6.046-2.202l10.327-7.711c2.268.523 4.586.789 6.913.792h1.057l-12.251 9.121zM24.99 45.342l-4.022-2.696.529-1.899 4.281 1.798-.814 2.797h.027zm3.049-28.245l1.554-5.786c1.933-.957 3.936-1.761 5.993-2.404-.037.069-.56 1.845-1.364 4.579-2.181.982-4.254 2.192-6.183 3.611z"
    fill="#44c8f5" />
  <path
    d="M25.804 42.545l-4.281-1.798 2.394-8.222 4.143-15.423c1.923-1.416 3.988-2.624 6.162-3.606l-8.419 29.048z"
    fill="#00c2f3" />
  <g fill="#fff">
    <path d="M32.463.658S17.839 4.78 8.554 18.879L23.88 32.515 32.463.658z" />
    <path
      d="M14.129 42.125L.837 36.556c1.297-6.376 3.919-12.404 7.695-17.688l6.173 5.483a40.06 40.06 0 0 0-6.152 14.301l5.491 2.297c.021.399.048.787.085 1.175z" />
    <path
      d="M20.968 42.646l-6.95-4.653.026 2.957-5.491-2.297a40.06 40.06 0 0 1 6.152-14.301l.613.532 3.277 2.914c-1.827 3.136-3.139 6.548-3.884 10.105l6.812 2.851-.555 1.893z" />
    <path
      d="M21.523 40.747l-6.812-2.851c.746-3.557 2.058-6.969 3.884-10.105l5.285 4.707-2.357 8.249z" />
  </g>
  <path
    d="M42.087 32.706l.164-3.824 33.734-1.016a25.38 25.38 0 0 1 .862 1.191l-12.615 2.952-22.144.697z"
    fill="#c7eafb" />
  <path
    d="M42.251 28.882l.602-13.987s1.057-.112 2.875-.112c6.258 0 21.278 1.314 30.257 13.083l-33.734 1.016z"
    fill="#00c2f3" />
  <path
    d="M64.232 32.009l12.615-2.952c.573.842 1.103 1.714 1.585 2.611a3.23 3.23 0 0 0-.433 0c-1.575-.011-7.325.144-13.767.34z"
    fill="#006ab5" />
  <path
    d="M34.329 58.335L14.536 45.071l-.407-2.946 6.236 2.606.291-1.011 4.286 1.792.048-.17 13.102 8.78-3.763 4.212z"
    fill="#c7eafb" />
  <path d="M24.943 45.512l-4.286-1.792.312-1.064 4.022 2.696-.048.16z" fill="#00c2f3" />
  <g fill="#fff">
    <path d="M20.366 44.731l-6.236-2.606-.085-1.175 6.612 2.771-.291 1.011z" />
    <path d="M20.656 43.72l-6.612-2.771-.026-2.957 6.95 4.653-.312 1.074z" />
  </g>
  <path
    d="M38.234 71.002c-2.323-.537-4.588-1.299-6.765-2.276l23.857-17.438 5.866 9.275-1.247.936-2.717-4.691-18.994 14.194z"
    fill="#c7eafb" />
  <path
    d="M45.147 71.795c-2.323-.004-4.638-.27-6.902-.792l19.026-14.194 2.717 4.691-13.741 10.28-1.099.016z"
    fill="#00c2f3" />
  <path d="M46.204 71.779l13.741-10.28 1.242-.936 2.695 4.255c-4.92 4.301-11.165 6.76-17.678 6.961z"
    fill="#006ab5" />
  <path
    d="M71.366 74.076l-8.53-14.737-.412.309-7.119-17.938 3.996-.92 11.997 30.234c1.51-1.802 2.821-3.764 3.911-5.85l.296.75a40.99 40.99 0 0 1-4.138 8.153z"
    fill="#c7eafb" />
  <path d="M71.298 71.024L59.301 40.79l5.708-1.335 10.2 25.703a32.68 32.68 0 0 1-3.911 5.866z"
    fill="#00c2f3" />
  <g fill="#006ab5">
    <path
      d="M75.505 65.908l-.296-.75-10.2-25.703c4.889-1.154 9.851-2.367 10.121-2.585 4.587 11.833 3.034 21.938.375 29.037zM69.268 76.9l-6.844-17.252.412-.309 8.53 14.737a26.3 26.3 0 0 1-2.098 2.824z" />
    <path d="M75.129 36.897v-.032c.018-.011.018 0 0 .032z" />
  </g>
  <path
    d="M24.948 74.007S7.507 62.924 8.321 40.901l6.215 4.169C17.084 58.701 27.87 65.567 27.87 65.567l6.458-7.233 2.886 1.931-12.266 13.742z"
    fill="#44c8f5" />
  <path d="M27.87 65.567s-10.787-6.866-13.334-20.496l19.792 13.264-6.458 7.233z" fill="#00c2f3" />
  <path
    d="M.034 43.178l36.028 24.145-15.3 17.135S-.975 70.63.034 43.178zM38.277.143S71.092-3.17 84.981 22.144c-.603-.191-47.708 1.367-47.708 1.367L38.277.143zm23.957 32.324l17.308 43.609S98.04 55.431 86.793 26.42c1.004.207-24.56 6.047-24.56 6.047zM26.602 86.404L62.836 59.34l12.283 21.225s-19.127 18.89-48.517 5.839z"
    fill="#fff" />
</svg>