<svg xmlns="http://www.w3.org/2000/svg" width="403" height="91" fill="none"
  xmlns:v="https://vecta.io/nano">
  <path
    d="M152.804 29.943c-.973 0-1.947.485-2.572 1.247l-16.473 21.76c-.556.693-1.598 1.871-2.641 1.871s-2.085-1.109-2.711-1.871l-16.333-21.69c-.626-.832-1.599-1.317-2.642-1.317-1.807 0-3.336 1.525-3.336 3.326 0 .901.417 1.733.973 2.356l17.029 22.661a9.08 9.08 0 0 0 7.09 3.396c2.988 0 5.629-1.455 7.367-3.604l16.82-22.73.07-.069c.486-.554.695-1.247.695-2.01.069-1.802-1.529-3.326-3.336-3.326zm11.954 6.653h49.627c1.807 0 3.336-1.525 3.336-3.326s-1.529-3.326-3.336-3.326h-49.627c-1.807 0-3.336 1.525-3.336 3.326s1.529 3.326 3.336 3.326zm105.023 5.197h-38.715c-1.39 0-2.641-1.178-2.641-2.564 0-1.455 1.251-2.564 2.641-2.564h42.607c1.807 0 3.336-1.525 3.336-3.326s-1.529-3.326-3.336-3.326h-42.468c-5.213 0-9.313 4.089-9.313 9.286s4.1 9.286 9.313 9.286h38.854c1.39 0 2.571 1.178 2.571 2.633 0 1.386-1.181 2.495-2.571 2.495h-99.74c-1.251 0-2.155-.831-2.155-1.732v-3.465h44.761c1.808 0 3.337-1.525 3.337-3.326s-1.529-3.326-3.337-3.326H165.94c-3.058 0-4.448.624-4.448 3.118v6.306c0 5.544 4.379 9.148 8.549 9.148h99.74c5.212 0 9.383-4.019 9.383-9.217a9.39 9.39 0 0 0-9.383-9.425zm69.505-8.524c0-1.802-1.53-3.326-3.337-3.326h-48.167c-1.807 0-3.336 1.525-3.336 3.326 0 1.733 1.39 3.188 3.058 3.326h20.991V56.97a3.38 3.38 0 0 0 3.336 3.326c1.807 0 3.336-1.525 3.336-3.326V36.596h20.713c1.807.069 3.406-1.525 3.406-3.326zm28.566-1.316c-1.599-2.148-4.24-3.396-7.089-3.396-2.989 0-5.769 1.455-7.368 3.604L336.436 54.96c-.487.554-.695 1.247-.695 2.01a3.38 3.38 0 0 0 3.336 3.326c.973 0 1.946-.485 2.572-1.247l16.472-21.76c.556-.693 1.599-1.871 2.642-1.871s2.085 1.109 2.71 1.871l16.334 21.691c.625.832 1.599 1.317 2.641 1.317 1.807 0 3.336-1.525 3.336-3.326 0-.901-.417-1.733-.973-2.356l-16.959-22.661zm33.919-5.406c-.904-1.594-2.155-2.841-3.754-3.742a10.01 10.01 0 0 0-5.004-1.317h-.278a10.78 10.78 0 0 0-4.726 1.317c-1.599.832-2.85 2.079-3.823 3.742-.904 1.594-1.39 3.326-1.39 5.059s.486 3.396 1.32 4.989c.904 1.594 2.155 2.841 3.754 3.742a10.79 10.79 0 0 0 4.726 1.317h.278a10.01 10.01 0 0 0 5.004-1.317c1.599-.901 2.85-2.148 3.754-3.742a9.94 9.94 0 0 0 1.32-4.989c.209-1.733-.278-3.396-1.181-5.059zm-1.391 9.286a8.42 8.42 0 0 1-3.127 3.118 8.18 8.18 0 0 1-4.171 1.109h-.278a8.67 8.67 0 0 1-3.892-1.109 8.43 8.43 0 0 1-3.128-3.118c-.764-1.317-1.112-2.703-1.112-4.158s.348-2.841 1.112-4.227a8.43 8.43 0 0 1 3.128-3.119 8.93 8.93 0 0 1 3.892-1.109h.278c1.39 0 2.781.346 4.171 1.109 1.39.693 2.432 1.733 3.127 3.119.765 1.386 1.112 2.772 1.112 4.227 0 1.386-.417 2.772-1.112 4.158zm-5.56-2.91c-.208-.208-.556-.416-.904-.554.974-.069 1.738-.416 2.294-.97s.834-1.247.834-2.079c0-.554-.139-1.109-.486-1.594s-.765-.832-1.39-1.04c-.487-.139-1.321-.277-2.364-.277h-4.17v10.88h1.738v-4.712h1.042c.626 0 1.043.139 1.39.346.487.346 1.043 1.178 1.877 2.564l.973 1.732h2.155l-1.321-2.148-1.668-2.148zm-2.016-1.802h-2.432v-3.326h2.432c.695 0 1.112.069 1.39.208.348.139.557.346.765.554.209.277.278.554.278.832 0 .485-.208.901-.556 1.247-.417.277-.973.485-1.877.485z"
    fill="#000" />
  <path d="M29.293 43.872l-3.267-1.317 8.48-29.037 4.101-1.525c-.069.208-9.314 31.878-9.314 31.878z"
    fill="#d4edfc" />
  <path
    d="M38.885 28.973l.904-20.443s1.251-.139 3.336-.139c7.924 0 28.15 1.802 37.88 19.404h-.487c-.695 0-2.016 0-3.753.069-9.036-11.781-24.188-13.098-30.513-13.098-1.807 0-2.919.139-2.919.139l-.626 13.999-3.823.069zm20.99 11.781l-1.946-4.99 5.769-1.317 1.946 4.92-5.769 1.386zM34.298 80.878c-1.946-.554-4.031-1.247-6.116-2.218l10.426-7.692c2.502.554 4.796.832 6.95.832H46.6l-12.302 9.078zm-9.036-35.551l-4.101-2.703.556-1.871 4.309 1.802-.765 2.772zm3.058-28.205l1.599-5.821a47.78 47.78 0 0 1 6.047-2.425c-.07.069-.556 1.871-1.39 4.574-2.363 1.109-4.448 2.287-6.255 3.673z"
    fill="#5bc5f2" />
  <path
    d="M26.096 42.556l-4.309-1.802 2.433-8.247 4.17-15.384a33.61 33.61 0 0 1 6.256-3.604l-8.549 29.037z"
    fill="#29bdef" />
  <path d="M42.499 32.715l.139-3.811 34.057-1.04.834 1.178-12.719 2.98-22.311.693z" fill="#d4edfc" />
  <path
    d="M42.638 28.904l.625-13.999s1.112-.139 2.919-.139c6.325 0 21.477 1.317 30.513 13.098l-34.057 1.04z"
    fill="#29bdef" />
  <path d="M64.81 32.022l12.719-2.98 1.599 2.633h-.417c-1.599 0-7.368.139-13.901.346z"
    fill="#0062ad" />
  <path
    d="M34.645 58.356L14.697 45.05c-.209-.97-.348-1.94-.417-2.91l6.256 2.633.278-1.04 4.309 1.802s0-.069.069-.139l13.206 8.801-3.753 4.158z"
    fill="#d4edfc" />
  <path d="M25.192 45.535l-4.309-1.802.348-1.109 4.031 2.703c-.07.139-.07.208-.07.208z"
    fill="#29bdef" />
  <path
    d="M38.607 70.968c-2.155-.485-4.448-1.247-6.811-2.287l24.049-17.394 5.908 9.286-1.251.901-2.711-4.712-19.183 14.206z"
    fill="#d4edfc" />
  <path d="M45.557 71.8c-2.155 0-4.518-.208-6.95-.832L57.79 56.831l2.711 4.712L46.6 71.8h-1.043z"
    fill="#29bdef" />
  <path d="M46.6 71.8l13.901-10.256 1.251-.901 2.711 4.227c0-.069-6.672 6.514-17.863 6.93z"
    fill="#0062ad" />
  <path
    d="M72.039 74.087L63.42 59.326l-.417.277-7.159-17.879 4.031-.901 12.094 30.214s1.877-2.079 3.962-5.89l.278.762c-1.321 3.534-2.919 6.306-4.17 8.177z"
    fill="#d4edfc" />
  <path
    d="M71.969 71.038L59.875 40.754l5.769-1.317 10.287 25.71c-2.085 3.742-3.962 5.89-3.962 5.89z"
    fill="#29bdef" />
  <path
    d="M76.209 65.909l-.278-.762-10.287-25.71 10.217-2.564c4.587 11.85 3.058 21.899.347 29.036zm-6.255 10.95l-6.881-17.255.417-.277 8.619 14.761-2.155 2.772z"
    fill="#0062ad" />
  <path
    d="M25.192 74.017S7.608 62.93 8.442 40.892l6.255 4.158c2.572 13.652 13.484 20.513 13.484 20.513l6.534-7.207 2.85 1.94-12.372 13.721z"
    fill="#5bc5f2" />
  <path d="M28.181 65.563S17.269 58.702 14.697 45.05l19.948 13.236-6.464 7.276z" fill="#29bdef" />
  <path
    d="M.032 43.179l36.351 24.116-15.43 17.117c0 .069-21.894-13.791-20.921-41.233zM38.676.144S71.76-3.182 85.8 22.112c-.626-.208-48.167 1.386-48.167 1.386L38.676.144zM26.86 86.422l36.56-27.096 12.372 21.206c.07 0-19.253 18.919-48.931 5.89zm35.935-53.984L80.24 76.027s18.697-20.651 7.298-49.618c1.112.208-24.744 6.029-24.744 6.029zM8.65 18.855C18.033 4.787 32.768.699 32.768.699L24.15 32.576l-2.433 8.247-.834 2.91-.278 1.04-6.255-2.633L.935 36.596c1.46-7.207 4.24-12.959 7.715-17.741z"
    fill="#324f9e" />
</svg>