<svg xmlns="http://www.w3.org/2000/svg" width="56" height="56" fill="none"><path stroke="#283F7E" stroke-linecap="round" stroke-linejoin="round" stroke-miterlimit="10" stroke-width="2" d="M35 2h-9.872L18 16h6l-4 8h6l-4 14 16-18.048h-6L36 12h-6z"/><path fill="#283F7E" d="M11.33 52.24q-.06.1.04.1h5.3q.2 0 .2.2v1.26q0 .2-.2.2H9.13q-.2 0-.2-.2v-1.28q0-.14.08-.24 2.58-3.32 4.02-5.34 1.54-2.14 1.54-3.42 0-.92-.52-1.46-.519-.56-1.38-.56-.84 0-1.36.56-.5.54-.48 1.44v.7q0 .2-.2.2H9.09q-.2 0-.2-.2v-.86q.04-1.58 1.1-2.54 1.08-.96 2.72-.96 1.14 0 2 .48a3.2 3.2 0 0 1 1.32 1.3q.48.84.48 1.9 0 1.78-1.6 4.04-.92 1.3-3 3.94zM20.94 52.24q-.06.1.04.1h5.3q.2 0 .2.2v1.26q0 .2-.2.2h-7.54q-.2 0-.2-.2v-1.28q0-.14.08-.24 2.58-3.32 4.02-5.34 1.54-2.14 1.54-3.42 0-.92-.52-1.46-.52-.56-1.38-.56-.84 0-1.36.56-.5.54-.48 1.44v.7q0 .2-.2.2H18.7q-.2 0-.2-.2v-.86q.04-1.58 1.1-2.54 1.08-.96 2.72-.96 1.14 0 2 .48.86.46 1.32 1.3.48.84.48 1.9 0 1.78-1.6 4.04-.92 1.3-3 3.94zM32.31 54.2q-1.82 0-2.92-1.08-1.08-1.08-1.08-2.9v-6.44q0-1.8 1.08-2.88 1.1-1.08 2.92-1.08t2.92 1.08 1.1 2.88v6.44q0 1.82-1.1 2.9t-2.92 1.08m0-1.66q.94 0 1.52-.6.58-.62.58-1.62V43.7q0-1-.58-1.6-.58-.62-1.52-.62t-1.52.62q-.56.6-.56 1.6v6.62q0 1 .56 1.62.58.6 1.52.6M41.826 54q-.18 0-.22-.18l-3.58-13.6-.02-.06q0-.16.2-.16h1.64q.2 0 .22.18l2.6 10.72q.02.06.04.06t.04-.06l2.6-10.72q.04-.18.22-.18h1.58q.1 0 .14.06.06.06.04.16l-3.62 13.6q-.04.18-.22.18z"/></svg>