<svg xmlns="http://www.w3.org/2000/svg" width="56" height="56" fill="none"><path stroke="#283F7E" stroke-linecap="round" stroke-linejoin="round" stroke-width="2" d="M38.532 18.462c-3.22-2.313-6.803-3.604-10.466-3.77-3.654.177-7.227 1.473-10.438 3.785M7.568 9.932a33 33 0 0 1 5.71-3.95A32.6 32.6 0 0 1 28.014 2a32.56 32.56 0 0 1 14.747 4 33 33 0 0 1 5.67 3.932m-4.482 34.12h5.97v3.979A5.97 5.97 0 0 1 43.949 54h-3.98A5.97 5.97 0 0 1 34 48.03V36.093a5.97 5.97 0 0 1 5.97-5.97h3.98a5.97 5.97 0 0 1 5.629 3.98M25.824 48.031H7.371a1.446 1.446 0 0 1-1.088-2.399L19.445 30.59a1.369 1.369 0 0 1 2.399.901V54"/></svg>