<svg xmlns="http://www.w3.org/2000/svg" width="56" height="56" fill="none"><path stroke="#283F7E" stroke-linecap="round" stroke-linejoin="round" stroke-miterlimit="10" stroke-width="2" d="m36.958 22.004-6.157.006v11.994l6.171-.006M26.157 22.004 20 22.01v11.994l6.172-.006m9.828-6-5.2.006m-5.59-.006-5.199.006m20.99-6v12m0-12s.012 2.927.013 3.794c0 1.056-.014 2.206-.014 2.206h4c1 0 3-.818 3-3s-2-3-3-3zm-25.999 3c.002 1.548-1.381 2.982-3.09 2.984-.848 0-3.905.016-3.905.016l-.004-3.197L8 22.004 11.905 22c1.709-.001 3.095 1.456 3.097 3.004m.998 6c.002 1.811-1.414 2.979-3.413 2.98-.99.002-4.587.02-4.587.02l-.004-3.294c0-.75-.004-2.706-.004-2.706l4.587-.005c2-.002 3.419 1.194 3.421 3.005M34.473 8H21.527C10.802 8 2 17.275 2 28s8.802 18 19.527 18h3.236L28 52l3.236-6h3.237C45.198 46 54 38.725 54 28S45.198 8 34.473 8"/></svg>