<svg xmlns="http://www.w3.org/2000/svg" width="48" height="48" fill="none">
  <path fill="#5B72B1" 
    d="M16.262 19.316a1 1 0 1 0 0 2zm5.326 2a1 1 0 1 0 0-2zm-5.326 2.21a1 1 0 1 0 0 2zm5.326 2a1 1 0 1 0 0-2zm6.857.638a1 1 0 0 0-2 0zm-1 7.836h-1a1 1 0 0 0 1.387.922zm4.015-1.684.44-.898a1 1 0 0 0-.826-.024zM34.902 34l-.44.898a1 1 0 0 0 1.44-.898zm1-7.836a1 1 0 1 0-2 0zM33.37 18.21a1 1 0 1 0 2 0zm-17.108 3.106h5.326v-2h-5.326zm0 4.21h5.326v-2h-5.326zm10.183.638v3.625h2v-3.625zm0 3.625V34h2v-4.21zm1.387 5.133 4.015-1.684-.774-1.844-4.015 1.684zm3.189-1.708 3.441 1.684.88-1.796-3.442-1.684zM35.9 34v-7.836h-2V34zM13 15h20.37v-2H13zm0 13.79V15h-2v13.79zM33.37 15v3.21h2V15zm-5.925 13.79H13v2h14.445zM11 28.79a2 2 0 0 0 2 2v-2zM33.37 15h2a2 2 0 0 0-2-2zM13 13a2 2 0 0 0-2 2h2zm22.5 9.42c0 2.344-1.926 4.264-4.326 4.264v2c3.482 0 6.326-2.793 6.326-6.263zm-4.326 4.264c-2.4 0-4.326-1.92-4.326-4.263h-2c0 3.47 2.843 6.263 6.326 6.263zm-4.326-4.263c0-2.343 1.925-4.263 4.326-4.263v-2c-3.483 0-6.326 2.793-6.326 6.263zm4.326-4.263c2.4 0 4.326 1.92 4.326 4.263h2c0-3.47-2.844-6.263-6.326-6.263z" />
</svg>