<svg xmlns="http://www.w3.org/2000/svg" width="27" height="22" fill="none"><path fill="#5B72B1" d="M5.262 6.316a1 1 0 1 0 0 2zm5.326 2a1 1 0 1 0 0-2zm-5.326 2.21a1 1 0 1 0 0 2zm5.326 2a1 1 0 1 0 0-2zm6.857.638a1 1 0 0 0-2 0zm-1 7.836h-1a1 1 0 0 0 1.387.922zm4.015-1.684.44-.898a1 1 0 0 0-.826-.024zM23.902 21l-.44.898a1 1 0 0 0 1.44-.898zm1-7.836a1 1 0 1 0-2 0zM22.37 5.21a1 1 0 1 0 2 0zM5.262 8.316h5.326v-2H5.262zm0 4.21h5.326v-2H5.262zm10.183.638v3.625h2v-3.625zm0 3.625V21h2v-4.21zm1.387 5.133 4.015-1.684-.774-1.844-4.015 1.684zm3.189-1.708 3.441 1.684.88-1.796-3.442-1.684zM24.9 21v-7.836h-2V21zM2 2h20.37V0H2zm0 13.79V2H0v13.79zM22.37 2v3.21h2V2zm-5.925 13.79H2v2h14.445zM0 15.79a2 2 0 0 0 2 2v-2zM22.37 2h2a2 2 0 0 0-2-2zM2 0a2 2 0 0 0-2 2h2zm22.5 9.42c0 2.344-1.926 4.264-4.326 4.264v2c3.482 0 6.326-2.793 6.326-6.263zm-4.326 4.264c-2.4 0-4.326-1.92-4.326-4.263h-2c0 3.47 2.843 6.263 6.326 6.263zm-4.326-4.263c0-2.343 1.925-4.263 4.326-4.263v-2c-3.483 0-6.326 2.793-6.326 6.263zm4.326-4.263c2.4 0 4.326 1.92 4.326 4.263h2c0-3.47-2.844-6.263-6.326-6.263z"/></svg>