<svg xmlns="http://www.w3.org/2000/svg" width="28" height="29" fill="none"
  xmlns:v="https://vecta.io/nano">
  <path fill-rule="evenodd"
    d="M7.94 11.5c.265 0 .502.087.71.264l5.335 4.717
5.337-4.717c.187-.168.411-.253.672-.258s.494.072.695.227.306.346.311.571-.086.422-.274.588l-6.047
5.345a.8.8 0 0 1-.302.195 1.13 1.13 0 0 1-.393.068 1 1 0 0
1-.693-.264l-6.018-5.345c-.187-.166-.278-.363-.274-.588s.113-.419.317-.578a.99.99 0 0 1
.29-.162c.113-.042.224-.063.333-.063z"
    fill="#232836" />
</svg>