<svg xmlns="http://www.w3.org/2000/svg" width="48" height="48" fill="none">
  <path fill="#5B72B1"
    d="M14 15.5a1 1 0 1 0-2 0zm-2 17.492a1 1 0 1 0 2 0zM34 20.75h1a1 1 0 0 0-1-1zM34 33h-1v.005zM16.5 12v-1h-.022zm8.75 0 .708-.706A1 1 0 0 0 25.25 11zM14 33a1 1 0 1 0-2 0zm-2-17.502a1 1 0 0 0 2 0zm21.283 5.966a1 1 0 0 0 1.415-1.413zM25.25 17.25h-1v.003zm3.5 3.5v1zM16.5 32a1 1 0 1 0 0 2zm5.25 2a1 1 0 1 0 0-2zm-5.25-5.5a1 1 0 1 0 0 2zm8.75 2a1 1 0 1 0 0-2zM16.5 25a1 1 0 1 0 0 2zm5.25 2a1 1 0 1 0 0-2zM12 15.5v17.492h2V15.5zm21 5.25V33h2V20.75zM16.5 13h8.75v-2H16.5zm0 24.5h14v-2h-14zM33 33.005c.003.545-.28 1.176-.797 1.693-.517.516-1.153.802-1.703.802v2c1.2 0 2.319-.59 3.116-1.387.798-.796 1.39-1.915 1.384-3.118zM12 33c0 1.2.59 2.317 1.387 3.113.796.797 1.913 1.387 3.113 1.387v-2c-.55 0-1.183-.285-1.7-.8-.515-.517-.8-1.15-.8-1.7zm2-17.502c0-.546.282-1.168.798-1.68.515-.511 1.158-.806 1.724-.818l-.044-2c-1.184.027-2.291.607-3.089 1.398-.796.79-1.389 1.898-1.389 3.1zm20.698 4.553-8.74-8.757-1.416 1.412 8.74 8.758zM24.25 17.253c.004 1.195.596 2.31 1.39 3.106.796.796 1.91 1.391 3.11 1.391v-2c-.544 0-1.176-.285-1.694-.804s-.804-1.154-.806-1.7zm2-.003V12h-2v5.25zm2.5 4.5H34v-2h-5.25zM16.5 34h5.25v-2H16.5zm0-3.5h8.75v-2H16.5zm0-3.5h5.25v-2H16.5z" />
</svg>