<svg xmlns="http://www.w3.org/2000/svg" width="23" height="27" fill="none"><path fill="#5B72B1" d="M2 4.5a1 1 0 0 0-2 0zM0 21.992a1 1 0 1 0 2 0zM22 9.75h1a1 1 0 0 0-1-1zM22 22h-1v.006zM4.5 1V0h-.022zm8.75 0 .708-.706A1 1 0 0 0 13.25 0zM2 22a1 1 0 1 0-2 0zM0 4.497a1 1 0 1 0 2 0zm21.283 5.967a1 1 0 0 0 1.415-1.413zM13.25 6.25h-1v.003zm3.5 3.5v1zM4.5 21a1 1 0 1 0 0 2zm5.25 2a1 1 0 1 0 0-2zM4.5 17.5a1 1 0 1 0 0 2zm8.75 2a1 1 0 1 0 0-2zM4.5 14a1 1 0 1 0 0 2zm5.25 2a1 1 0 1 0 0-2zM0 4.5v17.492h2V4.5zm21 5.25V22h2V9.75zM4.5 2h8.75V0H4.5zm0 24.5h14v-2h-14zM21 22.006c.003.544-.28 1.175-.797 1.692s-1.153.802-1.703.802v2c1.2 0 2.319-.59 3.116-1.387.798-.796 1.39-1.915 1.384-3.119zM0 22c0 1.2.59 2.317 1.387 3.113C2.183 25.91 3.3 26.5 4.5 26.5v-2c-.55 0-1.183-.285-1.7-.8-.515-.517-.8-1.15-.8-1.7zM2 4.497c0-.545.282-1.167.798-1.679.515-.511 1.158-.806 1.724-.818l-.044-2C3.294.027 2.187.607 1.389 1.398.593 2.188 0 3.295 0 4.498zm20.698 4.554L13.958.294l-1.416 1.412 8.74 8.758zM12.25 6.253c.004 1.195.596 2.31 1.39 3.106.796.796 1.91 1.391 3.11 1.391v-2c-.544 0-1.176-.285-1.694-.804s-.804-1.154-.806-1.7zm2-.003V1h-2v5.25zm2.5 4.5H22v-2h-5.25zM4.5 23h5.25v-2H4.5zm0-3.5h8.75v-2H4.5zm0-3.5h5.25v-2H4.5z"/></svg>