<svg xmlns="http://www.w3.org/2000/svg" width="56" height="56" fill="none"><path stroke="#283F7E" stroke-linecap="round" stroke-linejoin="round" stroke-miterlimit="10" stroke-width="2" d="M32.915 30h-8.86c-.396-.136 1.317-.92 6.795-8.967 1.023-1.503 1.826-2.876 2.065-3.938l.085-.683C33 13.917 30.793 12 28.366 12c-2.135 0-3.915 1.566-4.312 3.642"/><path stroke="#283F7E" stroke-linejoin="round" stroke-miterlimit="10" stroke-width="2" d="m42 36 6.303 11.435-.041.022-9.281-2.513L35.747 54 30 42M14 36 7.698 47.435l.041.022 9.282-2.513L20.253 54 26 42"/><path stroke="#283F7E" stroke-linejoin="round" stroke-miterlimit="10" stroke-width="2" d="M28 41.967c-11.028 0-20-8.972-20-20s8.972-20 20-20 20 8.972 20 20-8.972 20-20 20Z"/></svg>