<svg xmlns="http://www.w3.org/2000/svg" width="28" height="28" fill="none"
  xmlns:v="https://vecta.io/nano">
  <path
    d="M3.5 15v-1 1zM1 14a1 1 0 0 0-1 1 1 1 0 0 0 1 1v-2zm26 2a1 1 0 1 0 0-2v2zm-2.5-1v-1 1zM14 15v-1 1zm1 0a1 1 0 1 0 2 0h-2zm-4 0a1 1 0 1 0 2 0h-2zm-1.737-4.122a1 1 0 1 0 1.395 1.433l-1.395-1.433zm8.061 1.433a1 1 0 0 0 1.395-1.433l-1.395 1.433zM6.782 8.462a1 1 0 0 0 1.395 1.433L6.782 8.462zm13.022 1.433A1 1 0 0 0 21.2 8.462l-1.395 1.433zM4.302 6.046a1 1 0 0 0 1.395 1.433L4.302 6.046zm17.982 1.433a1 1 0 0 0 1.395-1.433l-1.395 1.433zM3.5 14H1v2h2.5v-2zm-1 1v5h2v-5h-2zM27 14h-2.5v2H27v-2zm-3.5 1v5h2v-5h-2zm1-1H14v2h10.5v-2zM14 14H3.5v2H14v-2zm-1 1v5h2v-5h-2zm10 7.5a1.5 1.5 0 0 1 1.5-1.5v-2a3.5 3.5 0 0 0-3.5 3.5h2zm1.5-1.5a1.5 1.5 0 0 1 1.5 1.5h2a3.5 3.5 0 0 0-3.5-3.5v2zm1.5 1.5a1.5 1.5 0 0 1-1.5 1.5v2a3.5 3.5 0 0 0 3.5-3.5h-2zM24.5 24a1.5 1.5 0 0 1-1.5-1.5h-2a3.5 3.5 0 0 0 3.5 3.5v-2zm-12-1.5A1.5 1.5 0 0 1 14 21v-2a3.5 3.5 0 0 0-3.5 3.5h2zM14 21a1.5 1.5 0 0 1 1.5 1.5h2A3.5 3.5 0 0 0 14 19v2zm1.5 1.5A1.5 1.5 0 0 1 14 24v2a3.5 3.5 0 0 0 3.5-3.5h-2zM14 24a1.5 1.5 0 0 1-1.5-1.5h-2A3.5 3.5 0 0 0 14 26v-2zM2 22.5A1.5 1.5 0 0 1 3.5 21v-2A3.5 3.5 0 0 0 0 22.5h2zM3.5 21A1.5 1.5 0 0 1 5 22.5h2A3.5 3.5 0 0 0 3.5 19v2zM5 22.5A1.5 1.5 0 0 1 3.5 24v2A3.5 3.5 0 0 0 7 22.5H5zM3.5 24A1.5 1.5 0 0 1 2 22.5H0A3.5 3.5 0 0 0 3.5 26v-2zM14 14a1 1 0 0 1 1 1h2a3 3 0 0 0-3-3v2zm-1 1a1 1 0 0 1 1-1v-2a3 3 0 0 0-3 3h2zm-2.342-2.689a4.81 4.81 0 0 1 6.666 0l1.395-1.433a6.81 6.81 0 0 0-9.456 0l1.395 1.433zm-2.48-2.416c3.208-3.124 8.419-3.124 11.626 0L21.2 8.462c-3.984-3.88-10.433-3.88-14.417 0l1.395 1.433zm-2.48-2.416c4.763-4.639 11.824-4.639 16.587 0l1.395-1.433C18.14.651 9.842.651 4.302 6.046l1.395 1.433z"
    fill="#283f7e" />
</svg>