<svg xmlns="http://www.w3.org/2000/svg" width="56" height="56" fill="none"><path stroke="#283F7E" stroke-linecap="round" stroke-linejoin="round" stroke-miterlimit="10" stroke-width="2" d="M24.305 7.231h-9.563V3.57c0-.866.714-1.57 1.594-1.57h6.375c.88 0 1.594.704 1.594 1.57zM39.258 7.231h-9.563V3.57c0-.866.714-1.57 1.594-1.57h6.375c.88 0 1.594.704 1.594 1.57zM11.594 54c-.88 0-1.594-.703-1.594-1.57V8.8c0-.866.714-1.569 1.594-1.569h30.812c.88 0 1.594.703 1.594 1.57v43.63c0 .866-.714 1.569-1.594 1.569z"/><path stroke="#283F7E" stroke-linecap="round" stroke-linejoin="round" stroke-miterlimit="10" stroke-width="2" d="M27 41.079v-8.254h-8.52L27 19.107v8.262h8.518zM43.477 12.69H10M44 48.769H10.523"/></svg>