<svg xmlns="http://www.w3.org/2000/svg" width="56" height="56" fill="none"><g clip-path="url(#a)"><mask id="b" width="56" height="56" x="0" y="0" maskUnits="userSpaceOnUse" style="mask-type:luminance"><path fill="#fff" d="M0 0h56v56H0z"/></mask><g mask="url(#b)"><path fill="#22509B" d="M13.305 4.26h29.39z"/><path stroke="#283F7E" stroke-linecap="round" stroke-linejoin="round" stroke-width="2" d="M13.305 4.26h29.39"/><path fill="#22509B" d="M13.305 15.565h29.39z"/><path stroke="#283F7E" stroke-linecap="round" stroke-linejoin="round" stroke-width="2" d="M13.305 15.565h29.39"/><path fill="#22509B" d="M13.305 26.868h18.694z"/><path stroke="#283F7E" stroke-linecap="round" stroke-linejoin="round" stroke-width="2" d="M13.305 26.868h18.694M4.26 6.522A2.26 2.26 0 1 0 4.26 2a2.26 2.26 0 0 0 0 4.522M4.26 17.825a2.26 2.26 0 1 0 0-4.521 2.26 2.26 0 0 0 0 4.521M4.26 29.13a2.26 2.26 0 1 0 0-4.522 2.26 2.26 0 0 0 0 4.521"/></g><path fill="#22509B" d="M41 28v26z"/><path stroke="#283F7E" stroke-linecap="round" stroke-width="2" d="M41 28v26"/><path fill="#22509B" d="M47.5 32.875v16.25z"/><path stroke="#283F7E" stroke-linecap="round" stroke-width="2" d="M47.5 32.875v16.25"/><path fill="#22509B" d="M34.5 32.875v16.25z"/><path stroke="#283F7E" stroke-linecap="round" stroke-width="2" d="M34.5 32.875v16.25"/><path fill="#22509B" d="M54 39.375v3.25z"/><path stroke="#283F7E" stroke-linecap="round" stroke-width="2" d="M54 39.375v3.25"/><path fill="#22509B" d="M28 39.375v3.25z"/><path stroke="#283F7E" stroke-linecap="round" stroke-width="2" d="M28 39.375v3.25"/></g><defs><clipPath id="a"><path fill="#fff" d="M0 0h56v56H0z"/></clipPath></defs></svg>