<svg xmlns="http://www.w3.org/2000/svg" width="56" height="56" fill="none"><path stroke="#283F7E" stroke-linecap="round" stroke-linejoin="round" stroke-miterlimit="10" stroke-width="2" d="M8.86 31.703A9.174 9.174 0 0 1 2 22.826c0-4.798 3.684-8.732 8.378-9.135A9.171 9.171 0 1 1 28.126 9.09a11.9 11.9 0 0 1 4.73-.975c4.323 0 8.108 2.297 10.205 5.736a9.16 9.16 0 1 1 2.794 18.091m-9.198-1.29c-4.316-4.317-11.314-4.317-15.63 0l-1.539 1.538m0 0-.145-4.236m.145 4.236 4.237.146m-4.382 9.052c4.316 4.316 11.314 4.316 15.63 0l1.538-1.538m0 0 .146 4.236m-.146-4.236-4.236-.146M46 36c0 9.941-8.059 18-18 18s-18-8.059-18-18 8.059-18 18-18 18 8.059 18 18"/></svg>