<svg xmlns="http://www.w3.org/2000/svg" width="28" height="28" fill="#232836" xmlns:v="https://vecta.io/nano"><path d="M15.9 15.3c.7-.6 1.1-1.4 1.1-2.3 0-1.7-1.3-3-3-3s-3 1.3-3 3c0 .9.4 1.7 1.1 2.3-1.2.5-2.1 1.8-2.1 3.2v2a1.54 1.54 0 0 0 1.5 1.5h5a1.54 1.54 0 0 0 1.5-1.5v-2c0-1.4-.9-2.7-2.1-3.2zM14 11c1.1 0 2 .9 2 2s-.9 2-2 2-2-.9-2-2 .9-2 2-2zm3 9.5a.47.47 0 0 1-.5.5h-5a.47.47 0 0 1-.5-.5v-2c0-1.4 1.1-2.5 2.5-2.5h1c1.4 0 2.5 1.1 2.5 2.5v2zm-7-7.9c.1-.3-.1-.6-.4-.6-.9-.2-1.6-1-1.6-2 0-1.1.9-2 2-2 .8 0 1.4.4 1.8 1.1.1.2.4.3.7.2.2-.1.3-.4.2-.7-.5-1-1.6-1.6-2.7-1.6-1.7 0-3 1.3-3 3 0 .9.4 1.7 1.1 2.3-1.2.5-2.1 1.8-2.1 3.2v2A1.54 1.54 0 0 0 7.5 19H8a.47.47 0 0 0 .5-.5.47.47 0 0 0-.5-.5h-.5a.47.47 0 0 1-.5-.5v-2C7 14.1 8.1 13 9.5 13c.2 0 .3-.1.4-.2s.1-.2.1-.2zm9.9-.3c.7-.6 1.1-1.4 1.1-2.3 0-1.7-1.3-3-3-3-1.1 0-2.2.6-2.7 1.6-.1.2 0 .5.2.7.2.1.5 0 .7-.2.4-.7 1-1.1 1.8-1.1 1.1 0 2 .9 2 2 0 1-.7 1.8-1.6 2-.3 0-.5.3-.4.6 0 .1.1.2.1.2.1.1.2.2.4.2 1.4 0 2.5 1.1 2.5 2.5v2a.47.47 0 0 1-.5.5H20a.47.47 0 0 0-.5.5.47.47 0 0 0 .5.5h.5a1.54 1.54 0 0 0 1.5-1.5v-2c0-1.4-.9-2.7-2.1-3.2z"/></svg>