<svg xmlns="http://www.w3.org/2000/svg" width="56" height="56" fill="none"><path fill="#283F7E" d="M35.824 49.938h1a1 1 0 0 0-.667-.943zm-.156-.055-.333.943zM32.44 48.03l-.645.764zm-.126-.106.645-.764a1 1 0 0 0-1.14-.105zm-1.733.99.496.868zm-2.89-.767-.864.505zm-1.176-2.013-.864.504zm.774-2.859-.496-.868zm1.702-.972.496.869a1 1 0 0 0 .487-1.053zm-.03-.161.983-.184zm0-3.721.983.184zm.03-.162.983.184a1 1 0 0 0-.487-1.052zm-1.702-.972-.496.869zm-.774-2.858-.864-.505zm1.175-2.014-.864-.505zm2.89-.766.497-.869zm1.734.99-.496.868a1 1 0 0 0 1.14-.104zm.126-.107.645.764zm3.228-1.853.333.944zm.156-.055.333.943a1 1 0 0 0 .667-.943zm6.583 0h-1a1 1 0 0 0 .668.943zm.157.055.332-.943zm3.227 1.853-.645.764zm.126.106-.644.765a1 1 0 0 0 1.14.104zm1.734-.99-.496-.868zm2.89.767.864-.504zm1.176 2.014.864-.505zm-.775 2.858-.495-.868zm-1.702.972-.496-.868a1 1 0 0 0-.487 1.052zm.03.162-.983.184zm0 3.72-.983-.183zm-.03.162-.983-.184a1 1 0 0 0 .487 1.052zm1.702.972.496-.868zm.775 2.859.864.504zm-1.176 2.013.864.505zm-2.89.766.496-.868zm-1.734-.99.496-.868a1 1 0 0 0-1.14.104zm-.126.107-.645-.764zm-3.227 1.853-.333-.943zm-.157.055-.333-.943a1 1 0 0 0-.667.943zM22 48.776a1 1 0 1 0 0-2v2m-20-2a1 1 0 0 0 0 2v-2m.366-39.848A1 1 0 1 0 3.77 8.353l-.702-.713zM20.23 8.353a1 1 0 0 0 1.404-1.425l-.702.712zM6.832 11.329a1 1 0 0 0 1.404 1.425l-.702-.713zm8.932 1.425a1 1 0 1 0 1.404-1.425l-.702.712zM37.94 54v-1a1.107 1.107 0 0 1-1.116-1.093h-2c0 1.717 1.407 3.093 3.116 3.093zm-2.116-2.093h1v-1.969h-2v1.97zm0-1.969.333-.943L36 48.94l-.333.943-.333.943.157.055zm-.156-.055.333-.943a9.3 9.3 0 0 1-2.916-1.674l-.645.764-.645.764a11.3 11.3 0 0 0 3.54 2.032zM32.44 48.03l.645-.764-.126-.106-.645.764-.645.764.126.106zm-.126-.106-.496-.869-1.733.99.496.868.496.869 1.733-.99zm-1.733.99-.496-.869c-.171.098-.366.15-.56.15v2c.544 0 1.08-.144 1.552-.413zm-1.056.28v-1c-.403 0-.776-.216-.971-.55l-.864.504-.864.504a3.13 3.13 0 0 0 2.699 1.542zm-1.835-1.047.864-.504-1.176-2.013-.863.504-.864.504 1.175 2.014zm-1.175-2.013.863-.504a1.083 1.083 0 0 1 .407-1.487l-.496-.868-.496-.868a3.083 3.083 0 0 0-1.142 4.23zm.774-2.859.496.869 1.702-.972-.496-.869-.495-.868-1.703.972zm1.702-.972.983-.184-.03-.161-.983.184-.983.183.03.162zm-.03-.161.983-.184a9 9 0 0 1-.173-1.677h-2c0 .64.07 1.312.207 2.044zm-.19-1.86h1c0-.494.054-1.04.173-1.677l-.983-.184-.983-.184a11 11 0 0 0-.207 2.044zm.19-1.861.983.184.03-.162-.983-.184-.983-.184-.03.162zm.03-.162.496-.868-1.702-.972-.496.868-.496.869 1.703.972zm-1.702-.972.496-.868a1.083 1.083 0 0 1-.407-1.486l-.863-.505-.864-.504a3.083 3.083 0 0 0 1.142 4.232zm-.774-2.858.863.504 1.176-2.014-.864-.504-.864-.504-1.175 2.013zm1.175-2.014.864.504c.195-.335.568-.55.971-.55v-2c-1.106 0-2.14.585-2.698 1.541zm1.835-1.047v1c.194 0 .389.051.56.15l.496-.87.495-.868a3.13 3.13 0 0 0-1.551-.412zm1.056.28-.496.87 1.733.989.496-.868.496-.869-1.734-.99zm1.733.99.645.765.126-.107-.645-.764-.644-.764-.127.106zm.126-.106.645.764a9.3 9.3 0 0 1 2.916-1.674l-.333-.943-.333-.943a11.3 11.3 0 0 0-3.54 2.032zm3.228-1.853.333.943.156-.055-.333-.943-.333-.943-.156.055zm.156-.055h1v-1.969h-2v1.97zm0-1.969h1c0-.591.491-1.093 1.116-1.093v-2c-1.709 0-3.116 1.376-3.116 3.093zm2.116-2.093v1h2.351v-2h-2.35zm2.351 0v1c.625 0 1.116.502 1.116 1.093h2c0-1.717-1.407-3.093-3.116-3.093zm2.116 2.093h-1v1.97h2v-1.97zm0 1.97-.332.942.156.055.332-.943.333-.943-.156-.055zm.157.054-.333.943a9.3 9.3 0 0 1 2.915 1.674l.645-.764.645-.764a11.3 11.3 0 0 0-3.54-2.032zm3.227 1.853-.645.764.127.107.644-.765.645-.764-.126-.107zm.126.106.496.869 1.734-.99-.496-.868-.496-.869-1.733.99zm1.734-.99.495.87c.172-.099.366-.15.56-.15v-2c-.543 0-1.079.143-1.551.412zm1.055-.28v1c.404 0 .776.216.972.551l.863-.504.864-.505a3.13 3.13 0 0 0-2.699-1.542zm1.835 1.047-.863.504 1.175 2.014.864-.505.864-.504-1.176-2.013zm1.176 2.014-.864.504c.3.514.126 1.182-.407 1.486l.496.868.496.869a3.083 3.083 0 0 0 1.143-4.232zm-.775 2.858-.495-.868-1.703.972.496.868.496.869 1.702-.972zm-1.702.972-.983.184.03.162.983-.184.983-.184-.03-.162zm.03.162-.983.184c.12.637.174 1.183.174 1.676h2c0-.64-.07-1.312-.208-2.044zm.19 1.86h-1c0 .493-.053 1.039-.173 1.677l.983.183.983.184c.137-.732.208-1.403.208-2.044zm-.19 1.86-.983-.183-.03.161.983.184.983.184.03-.162zm-.03.162-.496.868 1.703.972.495-.868.496-.868-1.702-.972zm1.702.972-.495.868c.532.304.707.972.406 1.486l.864.505.864.504a3.083 3.083 0 0 0-1.143-4.231zm.775 2.859-.864-.505-1.175 2.014.863.504.864.505 1.176-2.014zm-1.176 2.013-.863-.504a1.13 1.13 0 0 1-.971.551v2c1.106 0 2.14-.586 2.698-1.542zm-1.834 1.047v-1c-.195 0-.39-.051-.56-.149l-.496.868-.496.869c.472.27 1.008.412 1.552.412zm-1.056-.28.496-.87-1.734-.989-.495.869-.496.868 1.733.99zm-1.734-.99-.645-.765-.126.107.645.764.645.764.126-.106zm-.126.106-.645-.764a9.3 9.3 0 0 1-2.915 1.674l.332.943.333.943a11.3 11.3 0 0 0 3.54-2.032zm-3.227 1.853-.334-.943-.156.055.333.943.333.943.157-.055zm-.157.055h-1v1.97h2v-1.97zm0 1.97h-1c0 .59-.49 1.092-1.116 1.092v2c1.709 0 3.116-1.376 3.116-3.093zM40.291 54v-1h-2.35v2h2.35zm3.527-13.719h-1c0 2.006-1.647 3.65-3.702 3.65v2c3.139 0 5.702-2.519 5.702-5.65zm-4.702 4.65v-1c-2.056 0-3.703-1.644-3.703-3.65h-2c0 3.131 2.564 5.65 5.703 5.65zm-4.703-4.65h1c0-2.005 1.647-3.65 3.703-3.65v-2c-3.14 0-5.703 2.52-5.703 5.65zm4.703-4.65v1c2.055 0 3.702 1.645 3.702 3.65h2c0-3.13-2.563-5.65-5.702-5.65zM5.158 54v1h13.684v-2H5.158zm13.684 0v1C21.125 55 23 53.173 23 50.888h-2C21 52.041 20.048 53 18.842 53zM22 50.888h1V24.954h-2v25.934zm0-25.934h1c0-2.284-1.875-4.112-4.158-4.112v2c1.206 0 2.158.96 2.158 2.112zm-3.158-3.112v-1H5.158v2h13.684zm-13.684 0v-1C2.875 20.842 1 22.67 1 24.954h2c0-1.152.952-2.112 2.158-2.112zM2 24.954H1v25.934h2V24.954zm0 25.934H1C1 53.173 2.875 55 5.158 55v-2C3.952 53 3 52.04 3 50.888zm20-3.112v-1H2v2h20zM3.068 7.64l.702.713c4.536-4.47 11.924-4.47 16.46 0l.702-.713.702-.712c-5.315-5.237-13.953-5.237-19.268 0zm4.466 4.401.702.713c2.073-2.043 5.454-2.043 7.528 0l.702-.713.702-.712c-2.852-2.81-7.484-2.81-10.336 0zm5.583 3.301-.702.713a.54.54 0 0 1 0 .776l.702.712.701.712a2.54 2.54 0 0 0 0-3.625zm0 2.2-.702-.712a.595.595 0 0 1-.83 0l-.701.713-.702.712a2.595 2.595 0 0 0 3.637 0zm-2.233 0 .702-.712a.54.54 0 0 1 0-.775l-.702-.713-.702-.712a2.54 2.54 0 0 0 0 3.625zm0-2.2.702.713a.595.595 0 0 1 .829 0l.702-.713.701-.712a2.595 2.595 0 0 0-3.636 0z"/></svg>