<svg xmlns="http://www.w3.org/2000/svg" width="56" height="56" fill="none"><path stroke="#283F7E" stroke-linejoin="round" stroke-width="2" d="M49.618 18.188c-.913 2.4-3.47 3.355-5.721 3.355h-.79l-.79 3.884h4.106L43.44 40h6.085l4.474-21.82zM41.257 23.181 42.33 18H16.75q-6.164 0-7.25 5.562l-.3 1.553q-.512 2.683.376 4.035t3.443 1.874l4.154.855c.68.142.959.535.845 1.186l-.123.582q-.238 1.155-1.504 1.155H3.006L2 39.982h14.915q6.135 0 7.221-5.561l.36-1.831q.51-2.678-.377-4.035-.887-1.356-3.414-1.874l-4.183-.856q-1.021-.218-.845-1.13l.089-.427c.037-.326.2-.624.453-.83s.576-.3.899-.265h11.04l-3.443 16.819h6.084l1.796-8.814h6.55l.97-4.805h-6.531l.663-3.2z"/></svg>