<svg xmlns="http://www.w3.org/2000/svg" width="56" height="56" fill="none"><path fill="#283F7E" d="m49.187 40.252-.877.481.001.002zM9.928 46l-.002 1h.002zM6.81 40.26l.877.48zM37.033 8.566l-.521.854zm12.074 3.44a1 1 0 0 0 1.786-.902l-.893.45zm-7.209-10.85a1 1 0 1 0-1.075 1.687L41.36 2zm-36.79 9.948a1 1 0 0 0 1.785.901L6 11.555zm10.07-8.26a1 1 0 1 0-1.076-1.687l.537.843zm34.009 37.408-.876.483c1.1 1.993-.203 4.265-2.23 4.265v2c3.81 0 5.686-4.14 3.982-7.23zM9.928 46l.002-1c-1.93-.004-3.32-2.297-2.244-4.26l-.877-.48-.877-.48c-1.715 3.127.36 7.212 3.994 7.22zM6.81 40.26l.877.48c2.144-3.913 3.242-9.246 3.242-15.622h-2c0 6.18-1.07 11.145-2.996 14.661zm3.12-15.142h1c0-14.034 14.287-22.596 25.583-15.698l.52-.854.522-.853C24.756-.102 8.928 9.726 8.928 25.118zM37.032 8.566l-.521.854c5.278 3.223 8.556 9.2 8.556 15.698h2c0-7.159-3.61-13.8-9.514-17.405zm9.035 16.552h-1c0 6.374 1.094 11.7 3.242 15.615l.877-.48.877-.482c-1.93-3.519-2.996-8.475-2.996-14.653zM50 11.554l.893-.45a25.34 25.34 0 0 0-8.995-9.947L41.361 2l-.538.843a23.34 23.34 0 0 1 8.284 9.162zm-44 0 .893.451a23.34 23.34 0 0 1 8.284-9.162L14.64 2l-.537-.843a25.34 25.34 0 0 0-8.995 9.947zM36 46h-1a7 7 0 0 1-7 7v2a9 9 0 0 0 9-9zm-8 8v-1a7 7 0 0 1-7-7h-2a9 9 0 0 0 9 9zm18.08-8v-1H9.929v2h36.153z"/></svg>